<?xml version="1.0" standalone="no"?><!DOCTYPE svg PUBLIC "-//W3C//DTD SVG 1.1//EN" "http://www.w3.org/Graphics/SVG/1.1/DTD/svg11.dtd"><svg t="1593097551829" class="icon" viewBox="0 0 1024 1024" version="1.1" xmlns="http://www.w3.org/2000/svg" p-id="2114" width="16" height="16" xmlns:xlink="http://www.w3.org/1999/xlink"><defs><style type="text/css"></style></defs><path d="M225.653158 795.668993a405 405 0 1 0 572.746496-572.766489 405 405 0 1 0-572.746496 572.766489Z" fill="#FFFFFF" p-id="2115"></path><path d="M225.653158 795.668993a405 405 0 1 0 572.746496-572.766489 405 405 0 1 0-572.746496 572.766489Z" fill="#E8955D" p-id="2116"></path><path d="M866.9 395.2C798 270.1 664.9 185.4 512 185.4s-286 84.7-354.9 209.8c-41.3 128.7-10.8 275.5 91.4 377.6 145.6 145.6 381.6 145.6 527.1 0 102.1-102.2 132.6-248.9 91.3-377.6z" fill="#FFB850" p-id="2117"></path><path d="M512 924.3c-53.9 0-106.4-10.2-156.2-30.4-51.5-20.9-97.7-51.5-137.3-91.2-39.6-39.6-70.3-85.8-91.2-137.3C107.2 615.7 97 563.1 97 509.3c0-53.9 10.2-106.4 30.4-156.2 20.9-51.5 51.6-97.7 91.2-137.3 39.6-39.6 85.8-70.3 137.3-91.2 49.7-20.2 102.3-30.4 156.2-30.4 53.9 0 106.4 10.2 156.2 30.4 51.5 20.9 97.7 51.5 137.3 91.2 39.6 39.6 70.3 85.8 91.2 137.3 20.2 49.7 30.4 102.3 30.4 156.2 0 53.9-10.2 106.4-30.4 156.2-20.9 51.5-51.5 97.7-91.2 137.3s-85.8 70.3-137.3 91.2c-49.9 20-102.4 30.3-156.3 30.3z m0-810c-105.5 0-204.7 41.1-279.3 115.7-154 154-154 404.6 0 558.6 74.6 74.6 173.8 115.7 279.3 115.7s204.7-41.1 279.3-115.7C865.9 714 907 614.8 907 509.3S865.9 304.6 791.3 230C716.7 155.3 617.5 114.3 512 114.3z" fill="#322E63" p-id="2118"></path><path d="M757.2 309.4l-2.8-2.8c-4.7-4.7-11.8-5.3-15.9-1.4L524.4 512.4c-0.8-0.3-1.6-0.5-2.4-0.7v-62.9c0-5.5-4.5-10-10-10s-10 4.5-10 10v57.5l-159.6-147c-2.5-2.3-8.4-0.4-13.1 4.3l-2.8 2.8c-4.7 4.7-6.6 10.5-4.3 13.1l150.5 163.4c-0.5 2.5-0.7 5-0.7 7.6 0 3.9 0.6 7.6 1.6 11.1l-5.5 5.3c-8.6 8.3-10.1 20.9-3.2 27.8l4.2 4.2c6.9 6.9 19.5 5.4 27.8-3.2l5-5.2v273c0 5.5 4.5 10 10 10s10-4.5 10-10V596.3l1.6 1.8c8.3 9 22.9 9.2 32 0.1l5.5-5.5c9.1-9.1 8.9-23.7-0.1-32l-9.1-8.4v-1.8c0-3.5-0.5-6.9-1.3-10.2l207.9-214.9c4.1-4.2 3.5-11.3-1.2-16z" fill="#E8955D" p-id="2119"></path><path d="M518.3 207.7h-12c-4.4 0-8-3.6-8-8v-52c0-4.4 3.6-8 8-8h12c4.4 0 8 3.6 8 8v52c0 4.4-3.6 8-8 8zM207.3 506.1v12c0 4.4-3.6 8-8 8h-52c-4.4 0-8-3.6-8-8v-12c0-4.4 3.6-8 8-8h52c4.4 0 8 3.6 8 8zM505.7 817.1h12c4.4 0 8 3.6 8 8v52c0 4.4-3.6 8-8 8h-12c-4.4 0-8-3.6-8-8v-52c0-4.4 3.6-8 8-8zM816.7 518.7v-12c0-4.4 3.6-8 8-8h52c4.4 0 8 3.6 8 8v12c0 4.4-3.6 8-8 8h-52c-4.4 0-8-3.6-8-8z" fill="#322E63" p-id="2120"></path><path d="M561.1 554.6l-5.5 5.5c-9.1 9.1-23.7 8.9-32-0.1L322.2 341.4c-2.3-2.5-0.4-8.4 4.3-13.1l2.8-2.8c4.7-4.7 10.5-6.6 13.1-4.3l218.7 201.4c9 8.4 9.2 22.9 0 32z" fill="#322E63" p-id="2121"></path><path d="M469.1 560.9l-4.2-4.2c-6.9-6.9-5.4-19.5 3.2-27.8l270.4-261.6c4.1-3.9 11.2-3.3 15.9 1.4l2.8 2.8c4.7 4.7 5.3 11.8 1.4 15.9L497 557.7c-8.3 8.6-20.9 10.1-27.9 3.2z" fill="#322E63" p-id="2122"></path><path d="M512 835.6c-5.5 0-10-4.5-10-10V410.7c0-5.5 4.5-10 10-10s10 4.5 10 10v414.8c0 5.6-4.5 10.1-10 10.1z" fill="#EA4468" p-id="2123"></path><path d="M512 512.4m-40 0a40 40 0 1 0 80 0 40 40 0 1 0-80 0Z" fill="#FFFFFF" p-id="2124"></path><path d="M512 562.4c-27.6 0-50-22.4-50-50s22.4-50 50-50 50 22.4 50 50-22.4 50-50 50z m0-80c-16.5 0-30 13.5-30 30s13.5 30 30 30 30-13.5 30-30-13.5-30-30-30z" fill="#322E63" p-id="2125"></path></svg>