<?xml version="1.0" standalone="no"?><!DOCTYPE svg PUBLIC "-//W3C//DTD SVG 1.1//EN" "http://www.w3.org/Graphics/SVG/1.1/DTD/svg11.dtd"><svg t="1593135018424" class="icon" viewBox="0 0 1024 1024" version="1.1" xmlns="http://www.w3.org/2000/svg" p-id="1291" xmlns:xlink="http://www.w3.org/1999/xlink" width="16" height="16"><defs><style type="text/css"></style></defs><path d="M643.8 201h-88.2c-17.6 0-29.4 11.8-29.4 29.6v562.8c0 17.8 11.8 29.6 29.4 29.6h88.2c17.6 0 29.4-11.8 29.4-29.6V230.6c0-17.8-11.8-29.6-29.4-29.6z m-14.7 355.4h-58.8c-8.8 0-14.7-5.9-14.7-14.8s5.9-14.8 14.7-14.8h58.8c8.8 0 14.7 5.9 14.7 14.8s-5.9 14.8-14.7 14.8z m0-88.8h-58.8c-8.8 0-14.7-5.9-14.7-14.8s5.9-14.8 14.7-14.8h58.8c8.8 0 14.7 5.9 14.7 14.8 0 8.8-5.9 14.8-14.7 14.8z m0-88.9h-58.8c-8.8 0-14.7-5.9-14.7-14.8s5.9-14.8 14.7-14.8h58.8c8.8 0 14.7 5.9 14.7 14.8s-5.9 14.8-14.7 14.8z m0-88.8h-58.8c-8.8 0-14.7-5.9-14.7-14.8s5.9-14.8 14.7-14.8h58.8c8.8 0 14.7 5.9 14.7 14.8s-5.9 14.8-14.7 14.8z m-123.5-56.3L420.3 204c-14.7-5.9-32.3 0-38.2 14.8L176.2 749c-5.9 14.8 2.9 32.6 17.6 38.5l85.3 32.6c14.7 5.9 32.3-3 38.2-17.8l205.9-530.2c5.9-14.8 0-32.6-17.6-38.5zM382.1 556.4c-2.9 8.9-11.8 11.8-20.6 8.9l-55.9-20.7c-8.8-3-11.8-11.8-8.8-20.7 2.9-8.9 11.8-11.9 20.6-8.9l55.9 20.7c8.8 3 11.7 11.8 8.8 20.7z m32.3-82.9c-2.9 5.9-11.8 8.9-20.6 5.9l-55.9-20.7c-8.8-3-11.8-11.8-8.8-20.7 2.9-8.9 11.8-11.8 20.6-8.9l55.9 23.7c8.8 2.9 11.7 11.8 8.8 20.7z m32.4-85.9c-2.9 8.9-11.8 11.8-20.6 8.9l-55.9-20.7c-8.8-3-11.8-11.8-8.8-20.7 2.9-5.9 11.8-8.9 20.6-5.9l55.9 20.7c8.8 2.9 11.7 11.8 8.8 17.7z m32.3-82.9c-2.9 8.9-11.8 11.9-20.6 8.9l-55.9-20.7c-8.8-3-11.8-11.8-8.8-20.7 2.9-8.9 11.8-11.8 20.6-8.9l55.9 20.7c8.8 2.9 11.7 11.8 8.8 20.7zM820.2 201H732c-17.6 0-29.4 11.8-29.4 29.6v562.8c0 17.8 11.8 29.6 29.4 29.6h88.2c17.6 0 29.4-11.8 29.4-29.6V230.6c0-17.8-11.7-29.6-29.4-29.6z m-14.7 355.4h-58.8c-8.8 0-14.7-5.9-14.7-14.8s5.9-14.8 14.7-14.8h58.8c8.8 0 14.7 5.9 14.7 14.8s-5.8 14.8-14.7 14.8z m0-88.8h-58.8c-8.8 0-14.7-5.9-14.7-14.8s5.9-14.8 14.7-14.8h58.8c8.8 0 14.7 5.9 14.7 14.8 0 8.8-5.8 14.8-14.7 14.8z m0-88.9h-58.8c-8.8 0-14.7-5.9-14.7-14.8s5.9-14.8 14.7-14.8h58.8c8.8 0 14.7 5.9 14.7 14.8s-5.8 14.8-14.7 14.8z m0-88.8h-58.8c-8.8 0-14.7-5.9-14.7-14.8s5.9-14.8 14.7-14.8h58.8c8.8 0 14.7 5.9 14.7 14.8s-5.8 14.8-14.7 14.8z" p-id="1292"></path></svg>