<?xml version="1.0" encoding="UTF-8" standalone="no"?>
<!DOCTYPE svg PUBLIC "-//W3C//DTD SVG 1.1//EN" "http://www.w3.org/Graphics/SVG/1.1/DTD/svg11.dtd">
<svg width="100%" height="100%" viewBox="0 0 79 25" version="1.1" xmlns="http://www.w3.org/2000/svg" xmlns:xlink="http://www.w3.org/1999/xlink" xml:space="preserve" xmlns:serif="http://www.serif.com/" style="fill-rule:evenodd;clip-rule:evenodd;stroke-linecap:round;stroke-linejoin:round;stroke-miterlimit:1.5;">
    <g transform="matrix(1,0,0,1,-151.708,-425.418)">
        <g transform="matrix(0.149848,0,0,0.137039,87.1511,383.946)">
            <rect x="434.984" y="307.193" width="517.123" height="172.236" style="fill:rgb(140,140,140);stroke:rgb(208,208,208);stroke-width:8.71px;"/>
        </g>
        <g transform="matrix(0.137039,0,0,0.137039,90.8984,389.979)">
            <g transform="matrix(118.863,0,0,118.863,453.919,391.478)">
                <path d="M0.155,-0.095L0.316,-0.095C0.368,-0.095 0.409,-0.108 0.438,-0.135C0.467,-0.163 0.481,-0.201 0.481,-0.25L0.481,-0.459C0.481,-0.509 0.467,-0.547 0.438,-0.574C0.409,-0.602 0.368,-0.615 0.316,-0.615L0.155,-0.615L0.155,-0.71L0.313,-0.71C0.37,-0.71 0.419,-0.7 0.459,-0.68C0.499,-0.66 0.53,-0.631 0.551,-0.593C0.572,-0.555 0.583,-0.509 0.583,-0.456L0.583,-0.254C0.583,-0.201 0.572,-0.155 0.551,-0.117C0.53,-0.079 0.499,-0.05 0.459,-0.03C0.418,-0.01 0.369,0 0.313,0L0.155,0L0.155,-0.095ZM0.088,-0.71L0.188,-0.71L0.188,0L0.088,0L0.088,-0.71Z" style="fill-rule:nonzero;"/>
            </g>
            <g transform="matrix(118.863,0,0,118.863,531.923,391.478)">
                <rect x="0.088" y="-0.71" width="0.1" height="0.71" style="fill-rule:nonzero;"/>
            </g>
            <g transform="matrix(118.863,0,0,118.863,564.657,391.478)">
                <path d="M0.301,0.007C0.267,0.007 0.235,0.004 0.204,-0.002C0.174,-0.009 0.145,-0.019 0.118,-0.032C0.092,-0.045 0.067,-0.061 0.044,-0.081L0.106,-0.157C0.133,-0.133 0.163,-0.116 0.195,-0.104C0.228,-0.092 0.263,-0.086 0.301,-0.086C0.353,-0.086 0.393,-0.096 0.421,-0.115C0.449,-0.134 0.463,-0.161 0.463,-0.196L0.463,-0.196C0.463,-0.221 0.457,-0.241 0.444,-0.255C0.431,-0.27 0.415,-0.28 0.394,-0.287C0.374,-0.294 0.348,-0.301 0.315,-0.307C0.314,-0.307 0.313,-0.307 0.312,-0.307C0.311,-0.307 0.31,-0.307 0.309,-0.308L0.302,-0.309C0.254,-0.317 0.216,-0.326 0.186,-0.337C0.156,-0.347 0.131,-0.366 0.109,-0.393C0.088,-0.42 0.078,-0.459 0.078,-0.509L0.078,-0.509C0.078,-0.553 0.087,-0.591 0.107,-0.622C0.127,-0.653 0.156,-0.677 0.193,-0.693C0.231,-0.709 0.277,-0.717 0.33,-0.717C0.355,-0.717 0.38,-0.715 0.405,-0.709C0.429,-0.703 0.453,-0.695 0.477,-0.684C0.501,-0.673 0.525,-0.66 0.548,-0.643L0.491,-0.564C0.464,-0.584 0.437,-0.599 0.41,-0.609C0.384,-0.619 0.357,-0.624 0.33,-0.624C0.281,-0.624 0.243,-0.614 0.217,-0.594C0.19,-0.575 0.176,-0.548 0.176,-0.512L0.176,-0.512C0.176,-0.487 0.183,-0.468 0.197,-0.454C0.211,-0.44 0.228,-0.43 0.249,-0.423C0.269,-0.416 0.298,-0.41 0.335,-0.402L0.353,-0.399C0.396,-0.39 0.432,-0.38 0.461,-0.368C0.49,-0.356 0.514,-0.336 0.533,-0.309C0.552,-0.282 0.562,-0.246 0.562,-0.199L0.562,-0.198C0.562,-0.155 0.552,-0.118 0.531,-0.087C0.511,-0.056 0.481,-0.033 0.442,-0.017C0.403,-0.001 0.356,0.007 0.301,0.007Z" style="fill-rule:nonzero;"/>
            </g>
            <g transform="matrix(118.863,0,0,118.863,635.522,391.478)">
                <path d="M0.281,-0.71L0.366,-0.71L0.628,0L0.521,0L0.324,-0.573L0.127,0L0.02,0L0.281,-0.71ZM0.14,-0.25L0.514,-0.25L0.514,-0.156L0.14,-0.156L0.14,-0.25Z" style="fill-rule:nonzero;"/>
            </g>
            <g transform="matrix(118.863,0,0,118.863,712.481,391.478)">
                <path d="M0.146,-0.092L0.339,-0.092C0.389,-0.092 0.426,-0.102 0.449,-0.121C0.472,-0.14 0.484,-0.167 0.484,-0.202L0.484,-0.204C0.484,-0.228 0.48,-0.248 0.471,-0.266C0.463,-0.283 0.45,-0.296 0.432,-0.305C0.414,-0.315 0.391,-0.319 0.363,-0.319L0.146,-0.319L0.146,-0.409L0.363,-0.409C0.4,-0.409 0.428,-0.418 0.447,-0.435C0.465,-0.452 0.475,-0.478 0.475,-0.512C0.475,-0.547 0.464,-0.574 0.443,-0.591C0.423,-0.609 0.391,-0.618 0.35,-0.618L0.146,-0.618L0.146,-0.71L0.368,-0.71C0.414,-0.71 0.452,-0.702 0.483,-0.687C0.514,-0.671 0.537,-0.649 0.552,-0.62C0.568,-0.591 0.575,-0.557 0.575,-0.518C0.575,-0.493 0.57,-0.47 0.561,-0.449C0.552,-0.428 0.537,-0.409 0.518,-0.394C0.498,-0.379 0.474,-0.369 0.446,-0.364C0.474,-0.36 0.499,-0.349 0.52,-0.333C0.541,-0.317 0.557,-0.297 0.568,-0.273C0.579,-0.249 0.584,-0.223 0.584,-0.195L0.584,-0.193C0.584,-0.155 0.576,-0.121 0.559,-0.092C0.542,-0.063 0.518,-0.04 0.486,-0.024C0.455,-0.008 0.418,0 0.376,0L0.146,0L0.146,-0.092ZM0.088,-0.71L0.187,-0.71L0.187,0L0.088,0L0.088,-0.71Z" style="fill-rule:nonzero;"/>
            </g>
            <g transform="matrix(118.863,0,0,118.863,789.208,391.478)">
                <path d="M0.088,-0.71L0.188,-0.71L0.188,0L0.088,0L0.088,-0.71ZM0.138,-0.095L0.544,-0.095L0.544,0L0.138,0L0.138,-0.095Z" style="fill-rule:nonzero;"/>
            </g>
            <g transform="matrix(118.863,0,0,118.863,857.345,391.478)">
                <path d="M0.088,-0.71L0.188,-0.71L0.188,0L0.088,0L0.088,-0.71ZM0.136,-0.095L0.544,-0.095L0.544,0L0.136,0L0.136,-0.095ZM0.136,-0.4L0.49,-0.4L0.49,-0.305L0.136,-0.305L0.136,-0.4ZM0.136,-0.71L0.544,-0.71L0.544,-0.615L0.136,-0.615L0.136,-0.71Z" style="fill-rule:nonzero;"/>
            </g>
            <g transform="matrix(118.863,0,0,118.863,928.384,391.478)">
                <path d="M0.155,-0.095L0.316,-0.095C0.368,-0.095 0.409,-0.108 0.438,-0.135C0.467,-0.163 0.481,-0.201 0.481,-0.25L0.481,-0.459C0.481,-0.509 0.467,-0.547 0.438,-0.574C0.409,-0.602 0.368,-0.615 0.316,-0.615L0.155,-0.615L0.155,-0.71L0.313,-0.71C0.37,-0.71 0.419,-0.7 0.459,-0.68C0.499,-0.66 0.53,-0.631 0.551,-0.593C0.572,-0.555 0.583,-0.509 0.583,-0.456L0.583,-0.254C0.583,-0.201 0.572,-0.155 0.551,-0.117C0.53,-0.079 0.499,-0.05 0.459,-0.03C0.418,-0.01 0.369,0 0.313,0L0.155,0L0.155,-0.095ZM0.088,-0.71L0.188,-0.71L0.188,0L0.088,0L0.088,-0.71Z" style="fill-rule:nonzero;"/>
            </g>
        </g>
    </g>
</svg>
