<?xml version="1.0" encoding="UTF-8" standalone="no"?>
<!DOCTYPE svg PUBLIC "-//W3C//DTD SVG 1.1//EN" "http://www.w3.org/Graphics/SVG/1.1/DTD/svg11.dtd">
<svg width="100%" height="100%" viewBox="0 0 428 19" version="1.1" xmlns="http://www.w3.org/2000/svg" xmlns:xlink="http://www.w3.org/1999/xlink" xml:space="preserve" xmlns:serif="http://www.serif.com/" style="fill-rule:evenodd;clip-rule:evenodd;stroke-linejoin:round;stroke-miterlimit:2;">
    <g transform="matrix(1,0,0,1,-44.398,-924.116)">
        <g transform="matrix(0.137039,0,0,0.137039,126.873,888.4)">
            <g transform="matrix(182.429,0,0,182.429,453.919,391.478)">
                <path d="M0.573,-0.382L0.573,-0.258C0.573,-0.206 0.563,-0.159 0.542,-0.119C0.522,-0.079 0.493,-0.048 0.455,-0.026C0.418,-0.004 0.374,0.007 0.325,0.007C0.275,0.007 0.231,-0.003 0.193,-0.024C0.155,-0.044 0.125,-0.074 0.104,-0.111C0.084,-0.149 0.073,-0.193 0.073,-0.243L0.073,-0.452C0.073,-0.505 0.083,-0.551 0.104,-0.591C0.125,-0.631 0.154,-0.662 0.191,-0.684C0.229,-0.706 0.272,-0.717 0.322,-0.717C0.362,-0.717 0.4,-0.709 0.434,-0.691C0.469,-0.674 0.497,-0.649 0.521,-0.617C0.544,-0.585 0.559,-0.548 0.567,-0.506L0.459,-0.506C0.454,-0.53 0.444,-0.551 0.43,-0.568C0.416,-0.585 0.399,-0.598 0.38,-0.607C0.361,-0.616 0.342,-0.62 0.322,-0.62C0.292,-0.62 0.267,-0.613 0.245,-0.599C0.222,-0.585 0.205,-0.566 0.193,-0.54C0.181,-0.515 0.175,-0.486 0.175,-0.452L0.175,-0.243C0.175,-0.212 0.181,-0.185 0.194,-0.162C0.206,-0.139 0.224,-0.122 0.246,-0.109C0.269,-0.096 0.295,-0.09 0.325,-0.09C0.354,-0.09 0.38,-0.096 0.402,-0.11C0.424,-0.123 0.441,-0.142 0.453,-0.167C0.465,-0.192 0.471,-0.222 0.471,-0.256L0.471,-0.287L0.327,-0.287L0.327,-0.382L0.573,-0.382Z" style="fill-rule:nonzero;"/>
            </g>
            <g transform="matrix(182.429,0,0,182.429,571.857,391.478)">
                <path d="M0.078,-0.507L0.178,-0.507L0.178,0L0.078,0L0.078,-0.507ZM0.357,-0.387C0.348,-0.397 0.337,-0.406 0.324,-0.411C0.31,-0.417 0.295,-0.419 0.277,-0.419C0.246,-0.419 0.221,-0.411 0.204,-0.393C0.186,-0.376 0.178,-0.352 0.178,-0.321L0.167,-0.418C0.183,-0.449 0.203,-0.472 0.228,-0.489C0.253,-0.506 0.28,-0.514 0.31,-0.514C0.333,-0.514 0.354,-0.511 0.373,-0.504C0.392,-0.497 0.408,-0.488 0.422,-0.475L0.357,-0.387Z" style="fill-rule:nonzero;"/>
            </g>
            <g transform="matrix(182.429,0,0,182.429,649.71,391.478)">
                <path d="M0.078,-0.71L0.178,-0.71L0.178,-0.61L0.078,-0.61L0.078,-0.71ZM0.078,-0.507L0.178,-0.507L0.178,0L0.078,0L0.078,-0.507Z" style="fill-rule:nonzero;"/>
            </g>
            <g transform="matrix(182.429,0,0,182.429,695.496,391.478)">
                <path d="M0.366,-0.71L0.466,-0.71L0.466,0L0.366,0L0.366,-0.71ZM0.239,0.009C0.202,0.009 0.17,0.001 0.144,-0.015C0.118,-0.031 0.098,-0.055 0.084,-0.086C0.07,-0.117 0.063,-0.154 0.063,-0.197L0.063,-0.309C0.063,-0.353 0.07,-0.39 0.083,-0.421C0.097,-0.452 0.116,-0.475 0.142,-0.491C0.167,-0.508 0.198,-0.516 0.234,-0.516C0.264,-0.516 0.291,-0.508 0.316,-0.492C0.341,-0.477 0.361,-0.455 0.376,-0.426L0.366,-0.323C0.366,-0.344 0.362,-0.363 0.354,-0.378C0.347,-0.393 0.335,-0.405 0.321,-0.413C0.306,-0.421 0.288,-0.425 0.267,-0.425C0.234,-0.425 0.208,-0.415 0.19,-0.394C0.172,-0.374 0.163,-0.345 0.163,-0.308L0.163,-0.197C0.163,-0.16 0.172,-0.132 0.19,-0.112C0.208,-0.092 0.234,-0.082 0.267,-0.082C0.288,-0.082 0.306,-0.086 0.321,-0.094C0.335,-0.103 0.347,-0.115 0.354,-0.13C0.362,-0.146 0.366,-0.165 0.366,-0.187L0.373,-0.08C0.363,-0.055 0.346,-0.034 0.323,-0.017C0.301,0 0.272,0.009 0.239,0.009Z" style="fill-rule:nonzero;"/>
            </g>
            <g transform="matrix(182.429,0,0,182.429,825.013,391.478)">
                <path d="M0.598,-0.71L0.691,-0.71L0.691,0L0.594,0L0.594,-0.532L0.599,-0.5L0.424,-0.099L0.355,-0.099L0.18,-0.491L0.185,-0.532L0.185,0L0.088,0L0.088,-0.71L0.181,-0.71L0.39,-0.241L0.598,-0.71Z" style="fill-rule:nonzero;"/>
            </g>
            <g transform="matrix(182.429,0,0,182.429,967.18,391.478)">
                <path d="M0.272,0.007C0.229,0.007 0.191,-0.001 0.16,-0.019C0.128,-0.036 0.105,-0.061 0.088,-0.094C0.072,-0.127 0.063,-0.167 0.063,-0.213L0.063,-0.296C0.063,-0.342 0.072,-0.381 0.088,-0.414C0.105,-0.447 0.128,-0.471 0.16,-0.489C0.191,-0.506 0.229,-0.514 0.272,-0.514C0.316,-0.514 0.354,-0.506 0.385,-0.489C0.417,-0.471 0.44,-0.447 0.457,-0.414C0.473,-0.381 0.481,-0.342 0.481,-0.296L0.481,-0.212C0.481,-0.166 0.473,-0.126 0.457,-0.094C0.44,-0.061 0.417,-0.036 0.385,-0.019C0.354,-0.001 0.316,0.007 0.272,0.007ZM0.272,-0.087C0.307,-0.087 0.334,-0.098 0.353,-0.12C0.372,-0.142 0.382,-0.173 0.382,-0.212L0.382,-0.296C0.382,-0.335 0.372,-0.366 0.353,-0.387C0.334,-0.409 0.307,-0.419 0.272,-0.419C0.238,-0.419 0.211,-0.409 0.192,-0.387C0.173,-0.366 0.163,-0.335 0.163,-0.296L0.163,-0.212C0.163,-0.173 0.173,-0.142 0.192,-0.12C0.211,-0.098 0.238,-0.087 0.272,-0.087Z" style="fill-rule:nonzero;"/>
            </g>
            <g transform="matrix(182.429,0,0,182.429,1066.59,391.478)">
                <path d="M0.078,-0.507L0.178,-0.507L0.178,0L0.078,0L0.078,-0.507ZM0.386,-0.307C0.386,-0.343 0.376,-0.371 0.358,-0.39C0.339,-0.41 0.313,-0.419 0.28,-0.419C0.247,-0.419 0.222,-0.411 0.204,-0.394C0.187,-0.376 0.178,-0.352 0.178,-0.321L0.167,-0.418C0.183,-0.449 0.204,-0.473 0.229,-0.489C0.254,-0.506 0.282,-0.514 0.313,-0.514C0.368,-0.514 0.41,-0.496 0.44,-0.46C0.47,-0.424 0.485,-0.373 0.485,-0.308L0.485,0L0.386,0L0.386,-0.307Z" style="fill-rule:nonzero;"/>
            </g>
            <g transform="matrix(182.429,0,0,182.429,1168.49,391.478)">
                <path d="M0.078,-0.71L0.178,-0.71L0.178,-0.61L0.078,-0.61L0.078,-0.71ZM0.078,-0.507L0.178,-0.507L0.178,0L0.078,0L0.078,-0.507Z" style="fill-rule:nonzero;"/>
            </g>
            <g transform="matrix(182.429,0,0,182.429,1214.28,391.478)">
                <path d="M0.21,0.002C0.169,0.002 0.139,-0.009 0.12,-0.031C0.101,-0.054 0.091,-0.088 0.091,-0.132L0.091,-0.654L0.191,-0.654L0.191,-0.131C0.191,-0.118 0.193,-0.109 0.198,-0.102C0.203,-0.096 0.21,-0.092 0.22,-0.092L0.268,-0.092L0.268,0.002L0.21,0.002ZM0.039,-0.507L0.268,-0.507L0.268,-0.417L0.039,-0.417L0.039,-0.507Z" style="fill-rule:nonzero;"/>
            </g>
            <g transform="matrix(182.429,0,0,182.429,1273.78,391.478)">
                <path d="M0.272,0.007C0.229,0.007 0.191,-0.001 0.16,-0.019C0.128,-0.036 0.105,-0.061 0.088,-0.094C0.072,-0.127 0.063,-0.167 0.063,-0.213L0.063,-0.296C0.063,-0.342 0.072,-0.381 0.088,-0.414C0.105,-0.447 0.128,-0.471 0.16,-0.489C0.191,-0.506 0.229,-0.514 0.272,-0.514C0.316,-0.514 0.354,-0.506 0.385,-0.489C0.417,-0.471 0.44,-0.447 0.457,-0.414C0.473,-0.381 0.481,-0.342 0.481,-0.296L0.481,-0.212C0.481,-0.166 0.473,-0.126 0.457,-0.094C0.44,-0.061 0.417,-0.036 0.385,-0.019C0.354,-0.001 0.316,0.007 0.272,0.007ZM0.272,-0.087C0.307,-0.087 0.334,-0.098 0.353,-0.12C0.372,-0.142 0.382,-0.173 0.382,-0.212L0.382,-0.296C0.382,-0.335 0.372,-0.366 0.353,-0.387C0.334,-0.409 0.307,-0.419 0.272,-0.419C0.238,-0.419 0.211,-0.409 0.192,-0.387C0.173,-0.366 0.163,-0.335 0.163,-0.296L0.163,-0.212C0.163,-0.173 0.173,-0.142 0.192,-0.12C0.211,-0.098 0.238,-0.087 0.272,-0.087Z" style="fill-rule:nonzero;"/>
            </g>
            <g transform="matrix(182.429,0,0,182.429,1373.19,391.478)">
                <path d="M0.078,-0.507L0.178,-0.507L0.178,0L0.078,0L0.078,-0.507ZM0.357,-0.387C0.348,-0.397 0.337,-0.406 0.324,-0.411C0.31,-0.417 0.295,-0.419 0.277,-0.419C0.246,-0.419 0.221,-0.411 0.204,-0.393C0.186,-0.376 0.178,-0.352 0.178,-0.321L0.167,-0.418C0.183,-0.449 0.203,-0.472 0.228,-0.489C0.253,-0.506 0.28,-0.514 0.31,-0.514C0.333,-0.514 0.354,-0.511 0.373,-0.504C0.392,-0.497 0.408,-0.488 0.422,-0.475L0.357,-0.387Z" style="fill-rule:nonzero;"/>
            </g>
        </g>
        <g transform="matrix(0.597572,0,0,1,17.867,229.635)">
            <path d="M273.406,698.429L273.406,708.686L44.398,708.686L44.398,698.429L273.406,698.429ZM535.822,698.429L760.152,698.429L760.152,708.686L535.822,708.686L535.822,698.429Z" style="fill:rgb(6,20,222);"/>
        </g>
    </g>
</svg>
