<?xml version="1.0" encoding="UTF-8" standalone="no"?>
<!DOCTYPE svg PUBLIC "-//W3C//DTD SVG 1.1//EN" "http://www.w3.org/Graphics/SVG/1.1/DTD/svg11.dtd">
<svg width="100%" height="100%" viewBox="0 0 716 24" version="1.1" xmlns="http://www.w3.org/2000/svg" xmlns:xlink="http://www.w3.org/1999/xlink" xml:space="preserve" xmlns:serif="http://www.serif.com/" style="fill-rule:evenodd;clip-rule:evenodd;stroke-linejoin:round;stroke-miterlimit:2;">
    <g transform="matrix(1,0,0,1,-44.398,-693.116)">
        <g transform="matrix(0.137039,0,0,0.137039,164.6,657.4)">
            <g transform="matrix(182.429,0,0,182.429,453.919,391.478)">
                <path d="M0.139,-0.37L0.366,-0.37C0.388,-0.37 0.407,-0.375 0.423,-0.385C0.439,-0.395 0.452,-0.41 0.461,-0.428C0.47,-0.447 0.474,-0.468 0.474,-0.492C0.474,-0.517 0.47,-0.538 0.461,-0.557C0.452,-0.575 0.439,-0.59 0.423,-0.6C0.407,-0.61 0.388,-0.615 0.366,-0.615L0.139,-0.615L0.139,-0.71L0.363,-0.71C0.405,-0.71 0.442,-0.701 0.475,-0.683C0.507,-0.665 0.532,-0.639 0.55,-0.606C0.567,-0.574 0.576,-0.535 0.576,-0.492C0.576,-0.449 0.567,-0.411 0.55,-0.378C0.532,-0.345 0.507,-0.32 0.475,-0.302C0.442,-0.284 0.405,-0.275 0.363,-0.275L0.139,-0.275L0.139,-0.37ZM0.088,-0.71L0.188,-0.71L0.188,0L0.088,0L0.088,-0.71Z" style="fill-rule:nonzero;"/>
            </g>
            <g transform="matrix(182.429,0,0,182.429,567.492,391.478)">
                <path d="M0.178,-0.131C0.178,-0.118 0.18,-0.109 0.186,-0.102C0.191,-0.096 0.199,-0.092 0.208,-0.092L0.255,-0.092L0.255,0.002L0.197,0.002C0.159,0.002 0.13,-0.009 0.109,-0.033C0.088,-0.056 0.078,-0.089 0.078,-0.132L0.078,-0.71L0.178,-0.71L0.178,-0.131Z" style="fill-rule:nonzero;"/>
            </g>
            <g transform="matrix(182.429,0,0,182.429,619.424,391.478)">
                <path d="M0.364,-0.321C0.364,-0.354 0.355,-0.38 0.338,-0.399C0.32,-0.417 0.295,-0.426 0.262,-0.426C0.242,-0.426 0.222,-0.423 0.203,-0.417C0.184,-0.411 0.166,-0.402 0.151,-0.391L0.079,-0.441C0.098,-0.464 0.123,-0.482 0.155,-0.495C0.186,-0.508 0.221,-0.514 0.259,-0.514C0.301,-0.514 0.337,-0.507 0.367,-0.492C0.397,-0.477 0.42,-0.456 0.436,-0.427C0.451,-0.399 0.459,-0.365 0.459,-0.326L0.459,0L0.364,0L0.364,-0.321ZM0.24,0.007C0.178,0.007 0.131,-0.006 0.1,-0.031C0.069,-0.057 0.054,-0.097 0.054,-0.149C0.054,-0.2 0.068,-0.237 0.096,-0.262C0.125,-0.287 0.167,-0.3 0.225,-0.3L0.369,-0.3L0.375,-0.22L0.225,-0.22C0.199,-0.22 0.18,-0.214 0.167,-0.202C0.154,-0.191 0.147,-0.173 0.147,-0.149C0.147,-0.124 0.156,-0.105 0.173,-0.092C0.19,-0.08 0.216,-0.074 0.251,-0.074C0.289,-0.074 0.317,-0.078 0.336,-0.086C0.355,-0.094 0.364,-0.107 0.364,-0.124L0.375,-0.053C0.366,-0.039 0.355,-0.028 0.342,-0.019C0.329,-0.01 0.314,-0.004 0.297,0.001C0.28,0.005 0.261,0.007 0.24,0.007Z" style="fill-rule:nonzero;"/>
            </g>
            <g transform="matrix(182.429,0,0,182.429,716.518,391.478)">
                <path d="M0.257,0.007C0.227,0.007 0.199,0.004 0.173,-0.001C0.147,-0.007 0.122,-0.016 0.1,-0.028C0.077,-0.04 0.056,-0.054 0.037,-0.072L0.096,-0.145C0.123,-0.124 0.15,-0.108 0.177,-0.098C0.204,-0.087 0.231,-0.082 0.257,-0.082C0.297,-0.082 0.326,-0.088 0.346,-0.1C0.366,-0.113 0.375,-0.131 0.375,-0.155C0.375,-0.172 0.37,-0.184 0.359,-0.192C0.349,-0.2 0.335,-0.205 0.319,-0.208C0.303,-0.211 0.281,-0.214 0.252,-0.216C0.249,-0.216 0.247,-0.216 0.244,-0.216L0.228,-0.217C0.195,-0.22 0.167,-0.225 0.144,-0.232C0.121,-0.239 0.102,-0.252 0.087,-0.271C0.072,-0.29 0.064,-0.318 0.064,-0.354C0.064,-0.389 0.072,-0.419 0.086,-0.443C0.101,-0.467 0.123,-0.484 0.152,-0.496C0.181,-0.508 0.217,-0.514 0.261,-0.514C0.287,-0.514 0.312,-0.512 0.336,-0.507C0.36,-0.502 0.383,-0.495 0.405,-0.485C0.427,-0.476 0.448,-0.463 0.468,-0.449L0.408,-0.376C0.382,-0.392 0.357,-0.404 0.333,-0.413C0.308,-0.421 0.284,-0.425 0.261,-0.425C0.227,-0.425 0.201,-0.419 0.185,-0.407C0.168,-0.396 0.159,-0.379 0.159,-0.355C0.159,-0.342 0.164,-0.332 0.174,-0.325C0.183,-0.318 0.195,-0.313 0.21,-0.311C0.225,-0.309 0.245,-0.307 0.272,-0.305L0.285,-0.304L0.288,-0.304C0.289,-0.304 0.29,-0.304 0.291,-0.304C0.326,-0.301 0.357,-0.297 0.382,-0.29C0.406,-0.282 0.427,-0.268 0.444,-0.247C0.461,-0.226 0.47,-0.195 0.47,-0.155C0.47,-0.119 0.462,-0.089 0.446,-0.065C0.431,-0.041 0.407,-0.023 0.376,-0.011C0.344,0.001 0.305,0.007 0.257,0.007Z" style="fill-rule:nonzero;"/>
            </g>
            <g transform="matrix(182.429,0,0,182.429,811.117,391.478)">
                <path d="M0.684,-0.307C0.684,-0.343 0.674,-0.371 0.656,-0.39C0.637,-0.41 0.611,-0.419 0.578,-0.419C0.547,-0.419 0.523,-0.41 0.506,-0.391C0.489,-0.372 0.48,-0.346 0.48,-0.311L0.46,-0.409C0.476,-0.442 0.497,-0.468 0.524,-0.487C0.55,-0.505 0.579,-0.514 0.61,-0.514C0.647,-0.514 0.678,-0.506 0.704,-0.49C0.73,-0.474 0.749,-0.45 0.763,-0.419C0.776,-0.389 0.783,-0.351 0.783,-0.308L0.783,0L0.684,0L0.684,-0.307ZM0.078,-0.507L0.178,-0.507L0.178,0L0.078,0L0.078,-0.507ZM0.381,-0.307C0.381,-0.343 0.372,-0.371 0.354,-0.39C0.337,-0.41 0.312,-0.419 0.28,-0.419C0.247,-0.419 0.222,-0.411 0.204,-0.394C0.187,-0.376 0.178,-0.352 0.178,-0.321L0.167,-0.418C0.183,-0.449 0.204,-0.473 0.229,-0.489C0.254,-0.506 0.282,-0.514 0.313,-0.514C0.348,-0.514 0.378,-0.506 0.403,-0.49C0.428,-0.474 0.448,-0.45 0.461,-0.419C0.474,-0.389 0.48,-0.351 0.48,-0.308L0.48,0L0.381,0L0.381,-0.307Z" style="fill-rule:nonzero;"/>
            </g>
            <g transform="matrix(182.429,0,0,182.429,967.358,391.478)">
                <path d="M0.364,-0.321C0.364,-0.354 0.355,-0.38 0.338,-0.399C0.32,-0.417 0.295,-0.426 0.262,-0.426C0.242,-0.426 0.222,-0.423 0.203,-0.417C0.184,-0.411 0.166,-0.402 0.151,-0.391L0.079,-0.441C0.098,-0.464 0.123,-0.482 0.155,-0.495C0.186,-0.508 0.221,-0.514 0.259,-0.514C0.301,-0.514 0.337,-0.507 0.367,-0.492C0.397,-0.477 0.42,-0.456 0.436,-0.427C0.451,-0.399 0.459,-0.365 0.459,-0.326L0.459,0L0.364,0L0.364,-0.321ZM0.24,0.007C0.178,0.007 0.131,-0.006 0.1,-0.031C0.069,-0.057 0.054,-0.097 0.054,-0.149C0.054,-0.2 0.068,-0.237 0.096,-0.262C0.125,-0.287 0.167,-0.3 0.225,-0.3L0.369,-0.3L0.375,-0.22L0.225,-0.22C0.199,-0.22 0.18,-0.214 0.167,-0.202C0.154,-0.191 0.147,-0.173 0.147,-0.149C0.147,-0.124 0.156,-0.105 0.173,-0.092C0.19,-0.08 0.216,-0.074 0.251,-0.074C0.289,-0.074 0.317,-0.078 0.336,-0.086C0.355,-0.094 0.364,-0.107 0.364,-0.124L0.375,-0.053C0.366,-0.039 0.355,-0.028 0.342,-0.019C0.329,-0.01 0.314,-0.004 0.297,0.001C0.28,0.005 0.261,0.007 0.24,0.007Z" style="fill-rule:nonzero;"/>
            </g>
            <g transform="matrix(182.429,0,0,182.429,1095.63,391.478)">
                <path d="M0.301,0.007C0.267,0.007 0.235,0.004 0.204,-0.002C0.174,-0.009 0.145,-0.019 0.118,-0.032C0.092,-0.045 0.067,-0.061 0.044,-0.081L0.106,-0.157C0.133,-0.133 0.163,-0.116 0.195,-0.104C0.228,-0.092 0.263,-0.086 0.301,-0.086C0.353,-0.086 0.393,-0.096 0.421,-0.115C0.449,-0.134 0.463,-0.161 0.463,-0.196L0.463,-0.196C0.463,-0.221 0.457,-0.241 0.444,-0.255C0.431,-0.27 0.415,-0.28 0.394,-0.287C0.374,-0.294 0.348,-0.301 0.315,-0.307C0.314,-0.307 0.313,-0.307 0.312,-0.307C0.311,-0.307 0.31,-0.307 0.309,-0.308L0.302,-0.309C0.254,-0.317 0.216,-0.326 0.186,-0.337C0.156,-0.347 0.131,-0.366 0.109,-0.393C0.088,-0.42 0.078,-0.459 0.078,-0.509L0.078,-0.509C0.078,-0.553 0.087,-0.591 0.107,-0.622C0.127,-0.653 0.156,-0.677 0.193,-0.693C0.231,-0.709 0.277,-0.717 0.33,-0.717C0.355,-0.717 0.38,-0.715 0.405,-0.709C0.429,-0.703 0.453,-0.695 0.477,-0.684C0.501,-0.673 0.525,-0.66 0.548,-0.643L0.491,-0.564C0.464,-0.584 0.437,-0.599 0.41,-0.609C0.384,-0.619 0.357,-0.624 0.33,-0.624C0.281,-0.624 0.243,-0.614 0.217,-0.594C0.19,-0.575 0.176,-0.548 0.176,-0.512L0.176,-0.512C0.176,-0.487 0.183,-0.468 0.197,-0.454C0.211,-0.44 0.228,-0.43 0.249,-0.423C0.269,-0.416 0.298,-0.41 0.335,-0.402L0.353,-0.399C0.396,-0.39 0.432,-0.38 0.461,-0.368C0.49,-0.356 0.514,-0.336 0.533,-0.309C0.552,-0.282 0.562,-0.246 0.562,-0.199L0.562,-0.198C0.562,-0.155 0.552,-0.118 0.531,-0.087C0.511,-0.056 0.481,-0.033 0.442,-0.017C0.403,-0.001 0.356,0.007 0.301,0.007Z" style="fill-rule:nonzero;"/>
            </g>
            <g transform="matrix(182.429,0,0,182.429,1207.95,391.478)">
                <path d="M0.272,0.007C0.229,0.007 0.191,-0.001 0.16,-0.019C0.128,-0.036 0.105,-0.061 0.088,-0.094C0.072,-0.127 0.063,-0.167 0.063,-0.213L0.063,-0.296C0.063,-0.342 0.072,-0.381 0.088,-0.414C0.105,-0.447 0.128,-0.471 0.16,-0.489C0.191,-0.506 0.229,-0.514 0.272,-0.514C0.316,-0.514 0.354,-0.506 0.385,-0.489C0.417,-0.471 0.44,-0.447 0.457,-0.414C0.473,-0.381 0.481,-0.342 0.481,-0.296L0.481,-0.212C0.481,-0.166 0.473,-0.126 0.457,-0.094C0.44,-0.061 0.417,-0.036 0.385,-0.019C0.354,-0.001 0.316,0.007 0.272,0.007ZM0.272,-0.087C0.307,-0.087 0.334,-0.098 0.353,-0.12C0.372,-0.142 0.382,-0.173 0.382,-0.212L0.382,-0.296C0.382,-0.335 0.372,-0.366 0.353,-0.387C0.334,-0.409 0.307,-0.419 0.272,-0.419C0.238,-0.419 0.211,-0.409 0.192,-0.387C0.173,-0.366 0.163,-0.335 0.163,-0.296L0.163,-0.212C0.163,-0.173 0.173,-0.142 0.192,-0.12C0.211,-0.098 0.238,-0.087 0.272,-0.087Z" style="fill-rule:nonzero;"/>
            </g>
            <g transform="matrix(182.429,0,0,182.429,1305.14,391.478)">
                <path d="M0.384,-0.507L0.483,-0.507L0.483,0L0.384,0L0.384,-0.507ZM0.178,-0.199C0.178,-0.163 0.187,-0.136 0.205,-0.116C0.223,-0.097 0.248,-0.087 0.281,-0.087C0.314,-0.087 0.339,-0.096 0.357,-0.113C0.375,-0.131 0.384,-0.155 0.384,-0.187L0.391,-0.081C0.38,-0.056 0.363,-0.035 0.34,-0.018C0.316,-0.001 0.288,0.007 0.253,0.007C0.197,0.007 0.154,-0.011 0.124,-0.047C0.093,-0.083 0.078,-0.133 0.078,-0.199L0.078,-0.507L0.178,-0.507L0.178,-0.199Z" style="fill-rule:nonzero;"/>
            </g>
            <g transform="matrix(182.429,0,0,182.429,1406.6,391.478)">
                <path d="M0.078,-0.507L0.178,-0.507L0.178,0L0.078,0L0.078,-0.507ZM0.357,-0.387C0.348,-0.397 0.337,-0.406 0.324,-0.411C0.31,-0.417 0.295,-0.419 0.277,-0.419C0.246,-0.419 0.221,-0.411 0.204,-0.393C0.186,-0.376 0.178,-0.352 0.178,-0.321L0.167,-0.418C0.183,-0.449 0.203,-0.472 0.228,-0.489C0.253,-0.506 0.28,-0.514 0.31,-0.514C0.333,-0.514 0.354,-0.511 0.373,-0.504C0.392,-0.497 0.408,-0.488 0.422,-0.475L0.357,-0.387Z" style="fill-rule:nonzero;"/>
            </g>
            <g transform="matrix(182.429,0,0,182.429,1482.67,391.478)">
                <path d="M0.283,0.007C0.236,0.007 0.197,-0.001 0.164,-0.019C0.132,-0.036 0.107,-0.061 0.089,-0.094C0.072,-0.127 0.063,-0.166 0.063,-0.213L0.063,-0.296C0.063,-0.342 0.072,-0.382 0.089,-0.414C0.107,-0.447 0.132,-0.471 0.164,-0.489C0.197,-0.506 0.236,-0.514 0.283,-0.514C0.309,-0.514 0.334,-0.511 0.357,-0.505C0.38,-0.498 0.401,-0.489 0.42,-0.477C0.438,-0.465 0.454,-0.45 0.466,-0.433L0.395,-0.369C0.38,-0.385 0.363,-0.397 0.344,-0.406C0.325,-0.415 0.305,-0.419 0.284,-0.419C0.246,-0.419 0.216,-0.409 0.195,-0.387C0.174,-0.366 0.163,-0.335 0.163,-0.296L0.163,-0.213C0.163,-0.173 0.174,-0.142 0.195,-0.12C0.216,-0.098 0.245,-0.087 0.284,-0.087C0.305,-0.087 0.326,-0.092 0.345,-0.102C0.364,-0.111 0.381,-0.124 0.395,-0.142L0.466,-0.072C0.454,-0.055 0.438,-0.041 0.419,-0.029C0.401,-0.017 0.38,-0.008 0.357,-0.002C0.333,0.004 0.309,0.007 0.283,0.007Z" style="fill-rule:nonzero;"/>
            </g>
            <g transform="matrix(182.429,0,0,182.429,1573.53,391.478)">
                <path d="M0.286,0.007C0.239,0.007 0.199,-0.001 0.166,-0.019C0.132,-0.037 0.107,-0.062 0.09,-0.096C0.072,-0.13 0.063,-0.172 0.063,-0.22L0.063,-0.277C0.063,-0.327 0.072,-0.37 0.089,-0.405C0.105,-0.441 0.13,-0.468 0.162,-0.486C0.194,-0.505 0.232,-0.514 0.277,-0.514C0.319,-0.514 0.355,-0.504 0.385,-0.482C0.415,-0.461 0.438,-0.431 0.454,-0.391C0.47,-0.351 0.478,-0.303 0.478,-0.247L0.478,-0.213L0.136,-0.213L0.136,-0.293L0.383,-0.293C0.38,-0.335 0.369,-0.367 0.351,-0.39C0.332,-0.413 0.308,-0.424 0.277,-0.424C0.239,-0.424 0.21,-0.412 0.189,-0.387C0.169,-0.362 0.158,-0.327 0.158,-0.282L0.158,-0.218C0.158,-0.176 0.169,-0.144 0.191,-0.121C0.214,-0.099 0.245,-0.087 0.286,-0.087C0.306,-0.087 0.326,-0.091 0.346,-0.1C0.366,-0.108 0.383,-0.119 0.399,-0.134L0.464,-0.068C0.439,-0.044 0.411,-0.026 0.38,-0.012C0.349,0.001 0.317,0.007 0.286,0.007Z" style="fill-rule:nonzero;"/>
            </g>
            <g transform="matrix(182.429,0,0,182.429,1702.51,391.478)">
                <path d="M0.191,-0.652L0.291,-0.652L0.291,0L0.191,0L0.191,-0.652ZM-0.01,-0.71L0.491,-0.71L0.491,-0.615L-0.01,-0.615L-0.01,-0.71Z" style="fill-rule:nonzero;"/>
            </g>
            <g transform="matrix(182.429,0,0,182.429,1790.34,391.478)">
                <path d="M0.078,-0.71L0.178,-0.71L0.178,-0.61L0.078,-0.61L0.078,-0.71ZM0.078,-0.507L0.178,-0.507L0.178,0L0.078,0L0.078,-0.507Z" style="fill-rule:nonzero;"/>
            </g>
            <g transform="matrix(182.429,0,0,182.429,1836.13,391.478)">
                <path d="M0.684,-0.307C0.684,-0.343 0.674,-0.371 0.656,-0.39C0.637,-0.41 0.611,-0.419 0.578,-0.419C0.547,-0.419 0.523,-0.41 0.506,-0.391C0.489,-0.372 0.48,-0.346 0.48,-0.311L0.46,-0.409C0.476,-0.442 0.497,-0.468 0.524,-0.487C0.55,-0.505 0.579,-0.514 0.61,-0.514C0.647,-0.514 0.678,-0.506 0.704,-0.49C0.73,-0.474 0.749,-0.45 0.763,-0.419C0.776,-0.389 0.783,-0.351 0.783,-0.308L0.783,0L0.684,0L0.684,-0.307ZM0.078,-0.507L0.178,-0.507L0.178,0L0.078,0L0.078,-0.507ZM0.381,-0.307C0.381,-0.343 0.372,-0.371 0.354,-0.39C0.337,-0.41 0.312,-0.419 0.28,-0.419C0.247,-0.419 0.222,-0.411 0.204,-0.394C0.187,-0.376 0.178,-0.352 0.178,-0.321L0.167,-0.418C0.183,-0.449 0.204,-0.473 0.229,-0.489C0.254,-0.506 0.282,-0.514 0.313,-0.514C0.348,-0.514 0.378,-0.506 0.403,-0.49C0.428,-0.474 0.448,-0.45 0.461,-0.419C0.474,-0.389 0.48,-0.351 0.48,-0.308L0.48,0L0.381,0L0.381,-0.307Z" style="fill-rule:nonzero;"/>
            </g>
            <g transform="matrix(182.429,0,0,182.429,1992.37,391.478)">
                <path d="M0.078,-0.71L0.178,-0.71L0.178,-0.61L0.078,-0.61L0.078,-0.71ZM0.078,-0.507L0.178,-0.507L0.178,0L0.078,0L0.078,-0.507Z" style="fill-rule:nonzero;"/>
            </g>
            <g transform="matrix(182.429,0,0,182.429,2038.15,391.478)">
                <path d="M0.078,-0.507L0.178,-0.507L0.178,0L0.078,0L0.078,-0.507ZM0.386,-0.307C0.386,-0.343 0.376,-0.371 0.358,-0.39C0.339,-0.41 0.313,-0.419 0.28,-0.419C0.247,-0.419 0.222,-0.411 0.204,-0.394C0.187,-0.376 0.178,-0.352 0.178,-0.321L0.167,-0.418C0.183,-0.449 0.204,-0.473 0.229,-0.489C0.254,-0.506 0.282,-0.514 0.313,-0.514C0.368,-0.514 0.41,-0.496 0.44,-0.46C0.47,-0.424 0.485,-0.373 0.485,-0.308L0.485,0L0.386,0L0.386,-0.307Z" style="fill-rule:nonzero;"/>
            </g>
            <g transform="matrix(182.429,0,0,182.429,2140.06,391.478)">
                <path d="M0.248,0.206C0.21,0.206 0.176,0.199 0.146,0.185C0.116,0.171 0.092,0.151 0.076,0.125L0.143,0.064C0.156,0.082 0.172,0.096 0.19,0.105C0.208,0.115 0.227,0.12 0.247,0.12C0.285,0.12 0.314,0.11 0.335,0.089C0.356,0.068 0.366,0.038 0.366,0L0.366,-0.507L0.466,-0.507L0.466,-0.015C0.466,0.031 0.457,0.071 0.44,0.104C0.423,0.138 0.398,0.163 0.366,0.18C0.333,0.197 0.294,0.206 0.248,0.206ZM0.239,0.009C0.202,0.009 0.17,0.001 0.144,-0.015C0.118,-0.031 0.098,-0.055 0.084,-0.086C0.07,-0.117 0.063,-0.154 0.063,-0.197L0.063,-0.309C0.063,-0.353 0.07,-0.39 0.083,-0.421C0.097,-0.452 0.116,-0.475 0.142,-0.491C0.167,-0.508 0.198,-0.516 0.234,-0.516C0.264,-0.516 0.291,-0.508 0.316,-0.492C0.341,-0.477 0.361,-0.455 0.376,-0.426L0.366,-0.323C0.366,-0.344 0.362,-0.363 0.354,-0.378C0.347,-0.393 0.335,-0.405 0.321,-0.413C0.306,-0.421 0.288,-0.425 0.267,-0.425C0.234,-0.425 0.208,-0.415 0.19,-0.394C0.172,-0.374 0.163,-0.345 0.163,-0.308L0.163,-0.197C0.163,-0.16 0.172,-0.132 0.19,-0.112C0.208,-0.092 0.234,-0.082 0.267,-0.082C0.288,-0.082 0.306,-0.086 0.321,-0.094C0.335,-0.103 0.347,-0.115 0.354,-0.13C0.362,-0.146 0.366,-0.165 0.366,-0.187L0.373,-0.08C0.363,-0.055 0.346,-0.034 0.323,-0.017C0.301,0 0.272,0.009 0.239,0.009Z" style="fill-rule:nonzero;"/>
            </g>
            <g transform="matrix(182.429,0,0,182.429,2269.57,391.478)">
                <path d="M0.301,0.007C0.267,0.007 0.235,0.004 0.204,-0.002C0.174,-0.009 0.145,-0.019 0.118,-0.032C0.092,-0.045 0.067,-0.061 0.044,-0.081L0.106,-0.157C0.133,-0.133 0.163,-0.116 0.195,-0.104C0.228,-0.092 0.263,-0.086 0.301,-0.086C0.353,-0.086 0.393,-0.096 0.421,-0.115C0.449,-0.134 0.463,-0.161 0.463,-0.196L0.463,-0.196C0.463,-0.221 0.457,-0.241 0.444,-0.255C0.431,-0.27 0.415,-0.28 0.394,-0.287C0.374,-0.294 0.348,-0.301 0.315,-0.307C0.314,-0.307 0.313,-0.307 0.312,-0.307C0.311,-0.307 0.31,-0.307 0.309,-0.308L0.302,-0.309C0.254,-0.317 0.216,-0.326 0.186,-0.337C0.156,-0.347 0.131,-0.366 0.109,-0.393C0.088,-0.42 0.078,-0.459 0.078,-0.509L0.078,-0.509C0.078,-0.553 0.087,-0.591 0.107,-0.622C0.127,-0.653 0.156,-0.677 0.193,-0.693C0.231,-0.709 0.277,-0.717 0.33,-0.717C0.355,-0.717 0.38,-0.715 0.405,-0.709C0.429,-0.703 0.453,-0.695 0.477,-0.684C0.501,-0.673 0.525,-0.66 0.548,-0.643L0.491,-0.564C0.464,-0.584 0.437,-0.599 0.41,-0.609C0.384,-0.619 0.357,-0.624 0.33,-0.624C0.281,-0.624 0.243,-0.614 0.217,-0.594C0.19,-0.575 0.176,-0.548 0.176,-0.512L0.176,-0.512C0.176,-0.487 0.183,-0.468 0.197,-0.454C0.211,-0.44 0.228,-0.43 0.249,-0.423C0.269,-0.416 0.298,-0.41 0.335,-0.402L0.353,-0.399C0.396,-0.39 0.432,-0.38 0.461,-0.368C0.49,-0.356 0.514,-0.336 0.533,-0.309C0.552,-0.282 0.562,-0.246 0.562,-0.199L0.562,-0.198C0.562,-0.155 0.552,-0.118 0.531,-0.087C0.511,-0.056 0.481,-0.033 0.442,-0.017C0.403,-0.001 0.356,0.007 0.301,0.007Z" style="fill-rule:nonzero;"/>
            </g>
            <g transform="matrix(182.429,0,0,182.429,2381.9,391.478)">
                <path d="M0.286,0.007C0.239,0.007 0.199,-0.001 0.166,-0.019C0.132,-0.037 0.107,-0.062 0.09,-0.096C0.072,-0.13 0.063,-0.172 0.063,-0.22L0.063,-0.277C0.063,-0.327 0.072,-0.37 0.089,-0.405C0.105,-0.441 0.13,-0.468 0.162,-0.486C0.194,-0.505 0.232,-0.514 0.277,-0.514C0.319,-0.514 0.355,-0.504 0.385,-0.482C0.415,-0.461 0.438,-0.431 0.454,-0.391C0.47,-0.351 0.478,-0.303 0.478,-0.247L0.478,-0.213L0.136,-0.213L0.136,-0.293L0.383,-0.293C0.38,-0.335 0.369,-0.367 0.351,-0.39C0.332,-0.413 0.308,-0.424 0.277,-0.424C0.239,-0.424 0.21,-0.412 0.189,-0.387C0.169,-0.362 0.158,-0.327 0.158,-0.282L0.158,-0.218C0.158,-0.176 0.169,-0.144 0.191,-0.121C0.214,-0.099 0.245,-0.087 0.286,-0.087C0.306,-0.087 0.326,-0.091 0.346,-0.1C0.366,-0.108 0.383,-0.119 0.399,-0.134L0.464,-0.068C0.439,-0.044 0.411,-0.026 0.38,-0.012C0.349,0.001 0.317,0.007 0.286,0.007Z" style="fill-rule:nonzero;"/>
            </g>
            <g transform="matrix(182.429,0,0,182.429,2479.71,391.478)">
                <path d="M0.21,0.002C0.169,0.002 0.139,-0.009 0.12,-0.031C0.101,-0.054 0.091,-0.088 0.091,-0.132L0.091,-0.654L0.191,-0.654L0.191,-0.131C0.191,-0.118 0.193,-0.109 0.198,-0.102C0.203,-0.096 0.21,-0.092 0.22,-0.092L0.268,-0.092L0.268,0.002L0.21,0.002ZM0.039,-0.507L0.268,-0.507L0.268,-0.417L0.039,-0.417L0.039,-0.507Z" style="fill-rule:nonzero;"/>
            </g>
            <g transform="matrix(182.429,0,0,182.429,2539.21,391.478)">
                <path d="M0.21,0.002C0.169,0.002 0.139,-0.009 0.12,-0.031C0.101,-0.054 0.091,-0.088 0.091,-0.132L0.091,-0.654L0.191,-0.654L0.191,-0.131C0.191,-0.118 0.193,-0.109 0.198,-0.102C0.203,-0.096 0.21,-0.092 0.22,-0.092L0.268,-0.092L0.268,0.002L0.21,0.002ZM0.039,-0.507L0.268,-0.507L0.268,-0.417L0.039,-0.417L0.039,-0.507Z" style="fill-rule:nonzero;"/>
            </g>
            <g transform="matrix(182.429,0,0,182.429,2598.71,391.478)">
                <path d="M0.078,-0.71L0.178,-0.71L0.178,-0.61L0.078,-0.61L0.078,-0.71ZM0.078,-0.507L0.178,-0.507L0.178,0L0.078,0L0.078,-0.507Z" style="fill-rule:nonzero;"/>
            </g>
            <g transform="matrix(182.429,0,0,182.429,2644.5,391.478)">
                <path d="M0.078,-0.507L0.178,-0.507L0.178,0L0.078,0L0.078,-0.507ZM0.386,-0.307C0.386,-0.343 0.376,-0.371 0.358,-0.39C0.339,-0.41 0.313,-0.419 0.28,-0.419C0.247,-0.419 0.222,-0.411 0.204,-0.394C0.187,-0.376 0.178,-0.352 0.178,-0.321L0.167,-0.418C0.183,-0.449 0.204,-0.473 0.229,-0.489C0.254,-0.506 0.282,-0.514 0.313,-0.514C0.368,-0.514 0.41,-0.496 0.44,-0.46C0.47,-0.424 0.485,-0.373 0.485,-0.308L0.485,0L0.386,0L0.386,-0.307Z" style="fill-rule:nonzero;"/>
            </g>
            <g transform="matrix(182.429,0,0,182.429,2746.4,391.478)">
                <path d="M0.248,0.206C0.21,0.206 0.176,0.199 0.146,0.185C0.116,0.171 0.092,0.151 0.076,0.125L0.143,0.064C0.156,0.082 0.172,0.096 0.19,0.105C0.208,0.115 0.227,0.12 0.247,0.12C0.285,0.12 0.314,0.11 0.335,0.089C0.356,0.068 0.366,0.038 0.366,0L0.366,-0.507L0.466,-0.507L0.466,-0.015C0.466,0.031 0.457,0.071 0.44,0.104C0.423,0.138 0.398,0.163 0.366,0.18C0.333,0.197 0.294,0.206 0.248,0.206ZM0.239,0.009C0.202,0.009 0.17,0.001 0.144,-0.015C0.118,-0.031 0.098,-0.055 0.084,-0.086C0.07,-0.117 0.063,-0.154 0.063,-0.197L0.063,-0.309C0.063,-0.353 0.07,-0.39 0.083,-0.421C0.097,-0.452 0.116,-0.475 0.142,-0.491C0.167,-0.508 0.198,-0.516 0.234,-0.516C0.264,-0.516 0.291,-0.508 0.316,-0.492C0.341,-0.477 0.361,-0.455 0.376,-0.426L0.366,-0.323C0.366,-0.344 0.362,-0.363 0.354,-0.378C0.347,-0.393 0.335,-0.405 0.321,-0.413C0.306,-0.421 0.288,-0.425 0.267,-0.425C0.234,-0.425 0.208,-0.415 0.19,-0.394C0.172,-0.374 0.163,-0.345 0.163,-0.308L0.163,-0.197C0.163,-0.16 0.172,-0.132 0.19,-0.112C0.208,-0.092 0.234,-0.082 0.267,-0.082C0.288,-0.082 0.306,-0.086 0.321,-0.094C0.335,-0.103 0.347,-0.115 0.354,-0.13C0.362,-0.146 0.366,-0.165 0.366,-0.187L0.373,-0.08C0.363,-0.055 0.346,-0.034 0.323,-0.017C0.301,0 0.272,0.009 0.239,0.009Z" style="fill-rule:nonzero;"/>
            </g>
            <g transform="matrix(182.429,0,0,182.429,2844.74,391.478)">
                <path d="M0.257,0.007C0.227,0.007 0.199,0.004 0.173,-0.001C0.147,-0.007 0.122,-0.016 0.1,-0.028C0.077,-0.04 0.056,-0.054 0.037,-0.072L0.096,-0.145C0.123,-0.124 0.15,-0.108 0.177,-0.098C0.204,-0.087 0.231,-0.082 0.257,-0.082C0.297,-0.082 0.326,-0.088 0.346,-0.1C0.366,-0.113 0.375,-0.131 0.375,-0.155C0.375,-0.172 0.37,-0.184 0.359,-0.192C0.349,-0.2 0.335,-0.205 0.319,-0.208C0.303,-0.211 0.281,-0.214 0.252,-0.216C0.249,-0.216 0.247,-0.216 0.244,-0.216L0.228,-0.217C0.195,-0.22 0.167,-0.225 0.144,-0.232C0.121,-0.239 0.102,-0.252 0.087,-0.271C0.072,-0.29 0.064,-0.318 0.064,-0.354C0.064,-0.389 0.072,-0.419 0.086,-0.443C0.101,-0.467 0.123,-0.484 0.152,-0.496C0.181,-0.508 0.217,-0.514 0.261,-0.514C0.287,-0.514 0.312,-0.512 0.336,-0.507C0.36,-0.502 0.383,-0.495 0.405,-0.485C0.427,-0.476 0.448,-0.463 0.468,-0.449L0.408,-0.376C0.382,-0.392 0.357,-0.404 0.333,-0.413C0.308,-0.421 0.284,-0.425 0.261,-0.425C0.227,-0.425 0.201,-0.419 0.185,-0.407C0.168,-0.396 0.159,-0.379 0.159,-0.355C0.159,-0.342 0.164,-0.332 0.174,-0.325C0.183,-0.318 0.195,-0.313 0.21,-0.311C0.225,-0.309 0.245,-0.307 0.272,-0.305L0.285,-0.304L0.288,-0.304C0.289,-0.304 0.29,-0.304 0.291,-0.304C0.326,-0.301 0.357,-0.297 0.382,-0.29C0.406,-0.282 0.427,-0.268 0.444,-0.247C0.461,-0.226 0.47,-0.195 0.47,-0.155C0.47,-0.119 0.462,-0.089 0.446,-0.065C0.431,-0.041 0.407,-0.023 0.376,-0.011C0.344,0.001 0.305,0.007 0.257,0.007Z" style="fill-rule:nonzero;"/>
            </g>
        </g>
        <g transform="matrix(1,0,0,1,0,1.1006)">
            <path d="M223.406,698.429L223.406,708.686L44.398,708.686L44.398,698.429L223.406,698.429ZM575.822,698.429L760.152,698.429L760.152,708.686L575.822,708.686L575.822,698.429Z" style="fill:rgb(6,20,222);"/>
        </g>
    </g>
</svg>
