<?xml version="1.0" encoding="UTF-8" standalone="no"?>
<!DOCTYPE svg PUBLIC "-//W3C//DTD SVG 1.1//EN" "http://www.w3.org/Graphics/SVG/1.1/DTD/svg11.dtd">
<svg width="100%" height="100%" viewBox="0 0 80 25" version="1.1" xmlns="http://www.w3.org/2000/svg" xmlns:xlink="http://www.w3.org/1999/xlink" xml:space="preserve" xmlns:serif="http://www.serif.com/" style="fill-rule:evenodd;clip-rule:evenodd;stroke-linecap:round;stroke-linejoin:round;stroke-miterlimit:1.5;">
    <g transform="matrix(1,0,0,1,-450.684,-306.568)">
        <g transform="matrix(0.150743,0,0,0.137039,385.738,265.096)">
            <rect x="434.984" y="307.193" width="517.123" height="172.236" style="fill:rgb(8,157,28);stroke:rgb(208,208,208);stroke-width:8.68px;"/>
        </g>
        <g transform="matrix(0.137039,0,0,0.137039,394.103,271.129)">
            <g transform="matrix(118.863,0,0,118.863,453.919,391.478)">
                <path d="M0.131,-0.395L0.374,-0.395C0.392,-0.395 0.409,-0.4 0.424,-0.409C0.438,-0.418 0.45,-0.431 0.458,-0.448C0.466,-0.464 0.47,-0.484 0.47,-0.505C0.47,-0.527 0.466,-0.546 0.458,-0.563C0.45,-0.58 0.439,-0.593 0.424,-0.602C0.41,-0.611 0.393,-0.616 0.374,-0.616L0.131,-0.616L0.131,-0.71L0.37,-0.71C0.411,-0.71 0.447,-0.702 0.478,-0.685C0.509,-0.668 0.533,-0.644 0.55,-0.613C0.567,-0.582 0.576,-0.546 0.576,-0.505C0.576,-0.465 0.567,-0.429 0.55,-0.398C0.533,-0.367 0.508,-0.343 0.477,-0.326C0.446,-0.309 0.41,-0.3 0.37,-0.3L0.131,-0.3L0.131,-0.395ZM0.088,-0.71L0.188,-0.71L0.188,0L0.088,0L0.088,-0.71ZM0.325,-0.322L0.424,-0.345L0.605,0L0.487,0L0.325,-0.322Z" style="fill-rule:nonzero;"/>
            </g>
            <g transform="matrix(118.863,0,0,118.863,529.079,391.478)">
                <path d="M0.281,-0.71L0.366,-0.71L0.628,0L0.521,0L0.324,-0.573L0.127,0L0.02,0L0.281,-0.71ZM0.14,-0.25L0.514,-0.25L0.514,-0.156L0.14,-0.156L0.14,-0.25Z" style="fill-rule:nonzero;"/>
            </g>
            <g transform="matrix(118.863,0,0,118.863,606.038,391.478)">
                <path d="M0.598,-0.71L0.691,-0.71L0.691,0L0.594,0L0.594,-0.532L0.599,-0.5L0.424,-0.099L0.355,-0.099L0.18,-0.491L0.185,-0.532L0.185,0L0.088,0L0.088,-0.71L0.181,-0.71L0.39,-0.241L0.598,-0.71Z" style="fill-rule:nonzero;"/>
            </g>
            <g transform="matrix(118.863,0,0,118.863,698.668,391.478)">
                <path d="M0.139,-0.37L0.366,-0.37C0.388,-0.37 0.407,-0.375 0.423,-0.385C0.439,-0.395 0.452,-0.41 0.461,-0.428C0.47,-0.447 0.474,-0.468 0.474,-0.492C0.474,-0.517 0.47,-0.538 0.461,-0.557C0.452,-0.575 0.439,-0.59 0.423,-0.6C0.407,-0.61 0.388,-0.615 0.366,-0.615L0.139,-0.615L0.139,-0.71L0.363,-0.71C0.405,-0.71 0.442,-0.701 0.475,-0.683C0.507,-0.665 0.532,-0.639 0.55,-0.606C0.567,-0.574 0.576,-0.535 0.576,-0.492C0.576,-0.449 0.567,-0.411 0.55,-0.378C0.532,-0.345 0.507,-0.32 0.475,-0.302C0.442,-0.284 0.405,-0.275 0.363,-0.275L0.139,-0.275L0.139,-0.37ZM0.088,-0.71L0.188,-0.71L0.188,0L0.088,0L0.088,-0.71Z" style="fill-rule:nonzero;"/>
            </g>
            <g transform="matrix(118.863,0,0,118.863,792.98,391.478)">
                <path d="M0.327,0.007C0.275,0.007 0.23,-0.003 0.193,-0.024C0.155,-0.044 0.127,-0.074 0.107,-0.114C0.088,-0.154 0.078,-0.201 0.078,-0.257L0.078,-0.71L0.178,-0.71L0.178,-0.253C0.178,-0.202 0.191,-0.162 0.217,-0.133C0.243,-0.105 0.28,-0.091 0.327,-0.091C0.375,-0.091 0.412,-0.105 0.438,-0.133C0.464,-0.162 0.478,-0.202 0.478,-0.253L0.478,-0.71L0.577,-0.71L0.577,-0.257C0.577,-0.201 0.567,-0.154 0.548,-0.114C0.528,-0.074 0.5,-0.044 0.462,-0.024C0.425,-0.003 0.38,0.007 0.327,0.007Z" style="fill-rule:nonzero;"/>
            </g>
            <g transform="matrix(118.863,0,0,118.863,870.868,391.478)">
                <path d="M0.139,-0.37L0.366,-0.37C0.388,-0.37 0.407,-0.375 0.423,-0.385C0.439,-0.395 0.452,-0.41 0.461,-0.428C0.47,-0.447 0.474,-0.468 0.474,-0.492C0.474,-0.517 0.47,-0.538 0.461,-0.557C0.452,-0.575 0.439,-0.59 0.423,-0.6C0.407,-0.61 0.388,-0.615 0.366,-0.615L0.139,-0.615L0.139,-0.71L0.363,-0.71C0.405,-0.71 0.442,-0.701 0.475,-0.683C0.507,-0.665 0.532,-0.639 0.55,-0.606C0.567,-0.574 0.576,-0.535 0.576,-0.492C0.576,-0.449 0.567,-0.411 0.55,-0.378C0.532,-0.345 0.507,-0.32 0.475,-0.302C0.442,-0.284 0.405,-0.275 0.363,-0.275L0.139,-0.275L0.139,-0.37ZM0.088,-0.71L0.188,-0.71L0.188,0L0.088,0L0.088,-0.71Z" style="fill-rule:nonzero;"/>
            </g>
        </g>
    </g>
</svg>
