<?xml version="1.0" encoding="UTF-8" standalone="no"?>
<!-- Generator: Adobe Illustrator 22.1.0, SVG Export Plug-In . SVG Version: 6.00 Build 0)  -->

<svg
   xmlns:dc="http://purl.org/dc/elements/1.1/"
   xmlns:cc="http://creativecommons.org/ns#"
   xmlns:rdf="http://www.w3.org/1999/02/22-rdf-syntax-ns#"
   xmlns:svg="http://www.w3.org/2000/svg"
   xmlns="http://www.w3.org/2000/svg"
   xmlns:sodipodi="http://sodipodi.sourceforge.net/DTD/sodipodi-0.dtd"
   xmlns:inkscape="http://www.inkscape.org/namespaces/inkscape"
   version="1.1"
   id="Capa_1"
   x="0px"
   y="0px"
   viewBox="0 0 381.80059 419.8"
   xml:space="preserve"
   sodipodi:docname="remo_whiskers_white.svg"
   inkscape:version="0.92.4 (5da689c313, 2019-01-14)"
   width="381.8006"
   height="419.79999"><metadata
   id="metadata3898"><rdf:RDF><cc:Work
       rdf:about=""><dc:format>image/svg+xml</dc:format><dc:type
         rdf:resource="http://purl.org/dc/dcmitype/StillImage" /><dc:title /></cc:Work></rdf:RDF></metadata><defs
   id="defs3896" /><sodipodi:namedview
   pagecolor="#ffffff"
   bordercolor="#666666"
   borderopacity="1"
   objecttolerance="10"
   gridtolerance="10"
   guidetolerance="10"
   inkscape:pageopacity="0"
   inkscape:pageshadow="2"
   inkscape:window-width="1920"
   inkscape:window-height="997"
   id="namedview3894"
   showgrid="false"
   inkscape:zoom="1.3505796"
   inkscape:cx="71.74193"
   inkscape:cy="209.95"
   inkscape:window-x="-9"
   inkscape:window-y="-9"
   inkscape:window-maximized="1"
   inkscape:current-layer="Capa_1" />
<style
   type="text/css"
   id="style3867">
	.st0{fill:#0066FF;}
</style>
<g
   id="g3891"
   style="fill:#ffffff"
   transform="translate(-230,-87.8)">
	<path
   class="st0"
   d="m 261.1,185.2 c 0,-36.4 10.3,-72.2 27.5,-95.7 l 1.2,-1.7 h -24.4 l -0.3,0.3 c -22.3,23.6 -35.1,58.9 -35.1,97 0,38 13.1,74.3 35.1,97 l 0.3,0.3 h 24.4 l -1.2,-1.7 c -17.5,-23.6 -27.5,-58.5 -27.5,-95.5 z"
   id="path3869"
   style="fill:#ffffff"
   inkscape:connector-curvature="0" />
	<polygon
   class="st0"
   points="369.2,235.9 369.5,236.5 394,236.5 314,95.1 313.7,94.6 289,94.6 "
   id="polygon3871"
   style="fill:#ffffff" />
	<path
   class="st0"
   d="m 464.4,280.9 c -17.5,-23.8 -27.5,-58.7 -27.5,-95.7 0,-36.4 10.3,-72.2 27.5,-95.7 l 1.2,-1.7 h -24.4 l -0.3,0.3 c -22.3,23.6 -35.1,58.9 -35.1,97 0,38 13.1,74.3 35.1,97 l 0.3,0.3 h 24.4 z"
   id="path3873"
   style="fill:#ffffff"
   inkscape:connector-curvature="0" />
	<polygon
   class="st0"
   points="464.8,94.6 544.9,235.9 545.2,236.5 569.8,236.5 489.8,95.1 489.5,94.6 "
   id="polygon3875"
   style="fill:#ffffff" />
	<path
   class="st0"
   d="m 289.8,312.7 h -24.4 l -0.3,0.3 c -22.3,23.6 -35.1,58.9 -35.1,97 0,38 13.1,74.3 35.1,97 l 0.3,0.3 h 24.4 l -1.2,-1.7 c -17.5,-23.8 -27.5,-58.7 -27.5,-95.7 0,-36.4 10.3,-72.2 27.5,-95.7 z"
   id="path3877"
   style="fill:#ffffff"
   inkscape:connector-curvature="0" />
	<polygon
   class="st0"
   points="300.8,436.9 300.3,437.2 300.3,465 377.5,425.5 378,425.2 378,401 300.3,361.9 300.3,389 350.6,413.1 "
   id="polygon3879"
   style="fill:#ffffff" />
	<polygon
   class="st0"
   points="424.1,389.6 427.7,322.1 427.8,321 402.5,321 406.3,388.6 406.4,389.6 "
   id="polygon3881"
   style="fill:#ffffff" />
	<path
   class="st0"
   d="m 472.2,430 c -10.2,0 -17,6.8 -17,17 0,10 7,17 17,17 9.9,0 17.2,-7.1 17.2,-17 0,-10.1 -6.9,-17 -17.2,-17 z"
   id="path3883"
   style="fill:#ffffff"
   inkscape:connector-curvature="0" />
	<path
   class="st0"
   d="m 472.2,363.5 c -10,0 -17,6.9 -17,16.8 0,10.1 7,17.2 17,17.2 10.1,0 17.2,-7.1 17.2,-17.2 0,-9.9 -7.1,-16.8 -17.2,-16.8 z"
   id="path3885"
   style="fill:#ffffff"
   inkscape:connector-curvature="0" />
	<polygon
   class="st0"
   points="538.4,389.6 542,322.1 542.1,321 516.8,321 520.6,388.6 520.7,389.6 "
   id="polygon3887"
   style="fill:#ffffff" />
	<path
   class="st0"
   d="m 577,313.1 -0.3,-0.3 H 552 l 1.2,1.7 c 17.2,23.2 27.5,59 27.5,95.7 0,37 -10,71.9 -27.5,95.7 l -1.2,1.7 h 24.6 l 0.3,-0.3 c 21.9,-22.9 34.9,-59.1 34.9,-97 0.1,-38.2 -12.6,-73.6 -34.8,-97.2 z"
   id="path3889"
   style="fill:#ffffff"
   inkscape:connector-curvature="0" />
</g>
</svg>