<?xml version="1.0" encoding="UTF-8" standalone="no"?>
<!DOCTYPE svg PUBLIC "-//W3C//DTD SVG 1.1//EN" "http://www.w3.org/Graphics/SVG/1.1/DTD/svg11.dtd">
<svg width="100%" height="100%" viewBox="0 0 80 25" version="1.1" xmlns="http://www.w3.org/2000/svg" xmlns:xlink="http://www.w3.org/1999/xlink" xml:space="preserve" xmlns:serif="http://www.serif.com/" style="fill-rule:evenodd;clip-rule:evenodd;stroke-linecap:round;stroke-linejoin:round;stroke-miterlimit:1.5;">
    <g transform="matrix(1,0,0,1,-542.488,-346.568)">
        <g transform="matrix(0.137039,0,0,0.137039,487.047,305.096)">
            <rect x="434.984" y="307.193" width="517.123" height="172.236" style="fill:rgb(229,11,11);stroke:rgb(208,208,208);stroke-width:9.12px;"/>
        </g>
        <g transform="matrix(0.137039,0,0,0.137039,493.495,311.129)">
            <g transform="matrix(118.863,0,0,118.863,453.919,391.478)">
                <path d="M0.088,-0.71L0.188,-0.71L0.188,0L0.088,0L0.088,-0.71ZM0.136,-0.095L0.544,-0.095L0.544,0L0.136,0L0.136,-0.095ZM0.136,-0.4L0.49,-0.4L0.49,-0.305L0.136,-0.305L0.136,-0.4ZM0.136,-0.71L0.544,-0.71L0.544,-0.615L0.136,-0.615L0.136,-0.71Z" style="fill-rule:nonzero;"/>
            </g>
            <g transform="matrix(118.863,0,0,118.863,524.958,391.478)">
                <path d="M0.131,-0.395L0.374,-0.395C0.392,-0.395 0.409,-0.4 0.424,-0.409C0.438,-0.418 0.45,-0.431 0.458,-0.448C0.466,-0.464 0.47,-0.484 0.47,-0.505C0.47,-0.527 0.466,-0.546 0.458,-0.563C0.45,-0.58 0.439,-0.593 0.424,-0.602C0.41,-0.611 0.393,-0.616 0.374,-0.616L0.131,-0.616L0.131,-0.71L0.37,-0.71C0.411,-0.71 0.447,-0.702 0.478,-0.685C0.509,-0.668 0.533,-0.644 0.55,-0.613C0.567,-0.582 0.576,-0.546 0.576,-0.505C0.576,-0.465 0.567,-0.429 0.55,-0.398C0.533,-0.367 0.508,-0.343 0.477,-0.326C0.446,-0.309 0.41,-0.3 0.37,-0.3L0.131,-0.3L0.131,-0.395ZM0.088,-0.71L0.188,-0.71L0.188,0L0.088,0L0.088,-0.71ZM0.325,-0.322L0.424,-0.345L0.605,0L0.487,0L0.325,-0.322Z" style="fill-rule:nonzero;"/>
            </g>
            <g transform="matrix(118.863,0,0,118.863,602.44,391.478)">
                <path d="M0.131,-0.395L0.374,-0.395C0.392,-0.395 0.409,-0.4 0.424,-0.409C0.438,-0.418 0.45,-0.431 0.458,-0.448C0.466,-0.464 0.47,-0.484 0.47,-0.505C0.47,-0.527 0.466,-0.546 0.458,-0.563C0.45,-0.58 0.439,-0.593 0.424,-0.602C0.41,-0.611 0.393,-0.616 0.374,-0.616L0.131,-0.616L0.131,-0.71L0.37,-0.71C0.411,-0.71 0.447,-0.702 0.478,-0.685C0.509,-0.668 0.533,-0.644 0.55,-0.613C0.567,-0.582 0.576,-0.546 0.576,-0.505C0.576,-0.465 0.567,-0.429 0.55,-0.398C0.533,-0.367 0.508,-0.343 0.477,-0.326C0.446,-0.309 0.41,-0.3 0.37,-0.3L0.131,-0.3L0.131,-0.395ZM0.088,-0.71L0.188,-0.71L0.188,0L0.088,0L0.088,-0.71ZM0.325,-0.322L0.424,-0.345L0.605,0L0.487,0L0.325,-0.322Z" style="fill-rule:nonzero;"/>
            </g>
            <g transform="matrix(118.863,0,0,118.863,679.921,391.478)">
                <path d="M0.323,0.007C0.273,0.007 0.23,-0.003 0.192,-0.025C0.154,-0.047 0.125,-0.077 0.104,-0.117C0.084,-0.156 0.073,-0.202 0.073,-0.254L0.073,-0.456C0.073,-0.508 0.084,-0.553 0.104,-0.593C0.125,-0.633 0.154,-0.663 0.192,-0.685C0.23,-0.706 0.273,-0.717 0.323,-0.717C0.372,-0.717 0.416,-0.706 0.454,-0.685C0.491,-0.663 0.521,-0.633 0.541,-0.593C0.562,-0.553 0.572,-0.508 0.572,-0.456L0.572,-0.254C0.572,-0.202 0.562,-0.156 0.541,-0.117C0.521,-0.077 0.491,-0.047 0.454,-0.025C0.416,-0.003 0.372,0.007 0.323,0.007ZM0.323,-0.091C0.352,-0.091 0.378,-0.097 0.4,-0.111C0.422,-0.124 0.44,-0.142 0.452,-0.167C0.464,-0.191 0.47,-0.219 0.47,-0.251L0.47,-0.459C0.47,-0.491 0.464,-0.519 0.452,-0.543C0.44,-0.567 0.422,-0.586 0.4,-0.599C0.378,-0.613 0.352,-0.619 0.323,-0.619C0.293,-0.619 0.268,-0.613 0.245,-0.599C0.223,-0.586 0.206,-0.567 0.194,-0.543C0.181,-0.519 0.175,-0.491 0.175,-0.459L0.175,-0.251C0.175,-0.219 0.181,-0.191 0.194,-0.167C0.206,-0.142 0.223,-0.124 0.245,-0.111C0.268,-0.097 0.293,-0.091 0.323,-0.091Z" style="fill-rule:nonzero;"/>
            </g>
            <g transform="matrix(118.863,0,0,118.863,756.648,391.478)">
                <path d="M0.131,-0.395L0.374,-0.395C0.392,-0.395 0.409,-0.4 0.424,-0.409C0.438,-0.418 0.45,-0.431 0.458,-0.448C0.466,-0.464 0.47,-0.484 0.47,-0.505C0.47,-0.527 0.466,-0.546 0.458,-0.563C0.45,-0.58 0.439,-0.593 0.424,-0.602C0.41,-0.611 0.393,-0.616 0.374,-0.616L0.131,-0.616L0.131,-0.71L0.37,-0.71C0.411,-0.71 0.447,-0.702 0.478,-0.685C0.509,-0.668 0.533,-0.644 0.55,-0.613C0.567,-0.582 0.576,-0.546 0.576,-0.505C0.576,-0.465 0.567,-0.429 0.55,-0.398C0.533,-0.367 0.508,-0.343 0.477,-0.326C0.446,-0.309 0.41,-0.3 0.37,-0.3L0.131,-0.3L0.131,-0.395ZM0.088,-0.71L0.188,-0.71L0.188,0L0.088,0L0.088,-0.71ZM0.325,-0.322L0.424,-0.345L0.605,0L0.487,0L0.325,-0.322Z" style="fill-rule:nonzero;"/>
            </g>
        </g>
        <g transform="matrix(0.150743,0,0,0.137039,477.542,305.096)">
            <rect x="434.984" y="307.193" width="517.123" height="172.236" style="fill:rgb(229,11,11);stroke:rgb(208,208,208);stroke-width:8.68px;"/>
        </g>
        <g transform="matrix(0.137039,0,0,0.137039,483.716,311.129)">
            <g transform="matrix(118.863,0,0,118.863,453.919,391.478)">
                <path d="M0.32,0.007C0.271,0.007 0.228,-0.004 0.191,-0.025C0.153,-0.047 0.125,-0.078 0.104,-0.118C0.083,-0.158 0.073,-0.205 0.073,-0.257L0.073,-0.452C0.073,-0.505 0.083,-0.551 0.104,-0.591C0.125,-0.631 0.153,-0.662 0.191,-0.684C0.228,-0.706 0.271,-0.717 0.32,-0.717C0.361,-0.717 0.398,-0.709 0.433,-0.691C0.467,-0.674 0.495,-0.649 0.518,-0.617C0.541,-0.585 0.557,-0.548 0.565,-0.506L0.463,-0.506C0.457,-0.528 0.446,-0.548 0.432,-0.566C0.417,-0.583 0.4,-0.597 0.381,-0.606C0.361,-0.615 0.341,-0.62 0.32,-0.62C0.291,-0.62 0.266,-0.613 0.244,-0.599C0.222,-0.585 0.205,-0.566 0.193,-0.54C0.181,-0.515 0.175,-0.486 0.175,-0.452L0.175,-0.257C0.175,-0.224 0.181,-0.195 0.193,-0.169C0.205,-0.144 0.222,-0.124 0.244,-0.111C0.266,-0.097 0.291,-0.09 0.32,-0.09C0.341,-0.09 0.362,-0.094 0.381,-0.103C0.4,-0.112 0.417,-0.125 0.432,-0.142C0.446,-0.159 0.457,-0.18 0.463,-0.204L0.565,-0.204C0.557,-0.162 0.541,-0.125 0.518,-0.093C0.495,-0.061 0.466,-0.036 0.432,-0.019C0.398,-0.001 0.361,0.007 0.32,0.007Z" style="fill-rule:nonzero;"/>
            </g>
            <g transform="matrix(118.863,0,0,118.863,523.972,391.478)">
                <rect x="0.063" y="-0.1" width="0.1" height="0.1" style="fill-rule:nonzero;"/>
            </g>
            <g transform="matrix(118.863,0,0,118.863,571.215,391.478)">
                <path d="M0.32,0.007C0.271,0.007 0.228,-0.004 0.191,-0.025C0.153,-0.047 0.125,-0.078 0.104,-0.118C0.083,-0.158 0.073,-0.205 0.073,-0.257L0.073,-0.452C0.073,-0.505 0.083,-0.551 0.104,-0.591C0.125,-0.631 0.153,-0.662 0.191,-0.684C0.228,-0.706 0.271,-0.717 0.32,-0.717C0.361,-0.717 0.398,-0.709 0.433,-0.691C0.467,-0.674 0.495,-0.649 0.518,-0.617C0.541,-0.585 0.557,-0.548 0.565,-0.506L0.463,-0.506C0.457,-0.528 0.446,-0.548 0.432,-0.566C0.417,-0.583 0.4,-0.597 0.381,-0.606C0.361,-0.615 0.341,-0.62 0.32,-0.62C0.291,-0.62 0.266,-0.613 0.244,-0.599C0.222,-0.585 0.205,-0.566 0.193,-0.54C0.181,-0.515 0.175,-0.486 0.175,-0.452L0.175,-0.257C0.175,-0.224 0.181,-0.195 0.193,-0.169C0.205,-0.144 0.222,-0.124 0.244,-0.111C0.266,-0.097 0.291,-0.09 0.32,-0.09C0.341,-0.09 0.362,-0.094 0.381,-0.103C0.4,-0.112 0.417,-0.125 0.432,-0.142C0.446,-0.159 0.457,-0.18 0.463,-0.204L0.565,-0.204C0.557,-0.162 0.541,-0.125 0.518,-0.093C0.495,-0.061 0.466,-0.036 0.432,-0.019C0.398,-0.001 0.361,0.007 0.32,0.007Z" style="fill-rule:nonzero;"/>
            </g>
            <g transform="matrix(118.863,0,0,118.863,644.75,391.478)">
                <path d="M0.384,-0.507L0.483,-0.507L0.483,0L0.384,0L0.384,-0.507ZM0.178,-0.199C0.178,-0.163 0.187,-0.136 0.205,-0.116C0.223,-0.097 0.248,-0.087 0.281,-0.087C0.314,-0.087 0.339,-0.096 0.357,-0.113C0.375,-0.131 0.384,-0.155 0.384,-0.187L0.391,-0.081C0.38,-0.056 0.363,-0.035 0.34,-0.018C0.316,-0.001 0.288,0.007 0.253,0.007C0.197,0.007 0.154,-0.011 0.124,-0.047C0.093,-0.083 0.078,-0.133 0.078,-0.199L0.078,-0.507L0.178,-0.507L0.178,-0.199Z" style="fill-rule:nonzero;"/>
            </g>
            <g transform="matrix(118.863,0,0,118.863,710.856,391.478)">
                <path d="M0.078,-0.507L0.178,-0.507L0.178,0L0.078,0L0.078,-0.507ZM0.357,-0.387C0.348,-0.397 0.337,-0.406 0.324,-0.411C0.31,-0.417 0.295,-0.419 0.277,-0.419C0.246,-0.419 0.221,-0.411 0.204,-0.393C0.186,-0.376 0.178,-0.352 0.178,-0.321L0.167,-0.418C0.183,-0.449 0.203,-0.472 0.228,-0.489C0.253,-0.506 0.28,-0.514 0.31,-0.514C0.333,-0.514 0.354,-0.511 0.373,-0.504C0.392,-0.497 0.408,-0.488 0.422,-0.475L0.357,-0.387Z" style="fill-rule:nonzero;"/>
            </g>
            <g transform="matrix(118.863,0,0,118.863,761.581,391.478)">
                <path d="M0.078,-0.507L0.178,-0.507L0.178,0L0.078,0L0.078,-0.507ZM0.357,-0.387C0.348,-0.397 0.337,-0.406 0.324,-0.411C0.31,-0.417 0.295,-0.419 0.277,-0.419C0.246,-0.419 0.221,-0.411 0.204,-0.393C0.186,-0.376 0.178,-0.352 0.178,-0.321L0.167,-0.418C0.183,-0.449 0.203,-0.472 0.228,-0.489C0.253,-0.506 0.28,-0.514 0.31,-0.514C0.333,-0.514 0.354,-0.511 0.373,-0.504C0.392,-0.497 0.408,-0.488 0.422,-0.475L0.357,-0.387Z" style="fill-rule:nonzero;"/>
            </g>
            <g transform="matrix(118.863,0,0,118.863,811.146,391.478)">
                <path d="M0.286,0.007C0.239,0.007 0.199,-0.001 0.166,-0.019C0.132,-0.037 0.107,-0.062 0.09,-0.096C0.072,-0.13 0.063,-0.172 0.063,-0.22L0.063,-0.277C0.063,-0.327 0.072,-0.37 0.089,-0.405C0.105,-0.441 0.13,-0.468 0.162,-0.486C0.194,-0.505 0.232,-0.514 0.277,-0.514C0.319,-0.514 0.355,-0.504 0.385,-0.482C0.415,-0.461 0.438,-0.431 0.454,-0.391C0.47,-0.351 0.478,-0.303 0.478,-0.247L0.478,-0.213L0.136,-0.213L0.136,-0.293L0.383,-0.293C0.38,-0.335 0.369,-0.367 0.351,-0.39C0.332,-0.413 0.308,-0.424 0.277,-0.424C0.239,-0.424 0.21,-0.412 0.189,-0.387C0.169,-0.362 0.158,-0.327 0.158,-0.282L0.158,-0.218C0.158,-0.176 0.169,-0.144 0.191,-0.121C0.214,-0.099 0.245,-0.087 0.286,-0.087C0.306,-0.087 0.326,-0.091 0.346,-0.1C0.366,-0.108 0.383,-0.119 0.399,-0.134L0.464,-0.068C0.439,-0.044 0.411,-0.026 0.38,-0.012C0.349,0.001 0.317,0.007 0.286,0.007Z" style="fill-rule:nonzero;"/>
            </g>
            <g transform="matrix(118.863,0,0,118.863,874.873,391.478)">
                <path d="M0.078,-0.507L0.178,-0.507L0.178,0L0.078,0L0.078,-0.507ZM0.386,-0.307C0.386,-0.343 0.376,-0.371 0.358,-0.39C0.339,-0.41 0.313,-0.419 0.28,-0.419C0.247,-0.419 0.222,-0.411 0.204,-0.394C0.187,-0.376 0.178,-0.352 0.178,-0.321L0.167,-0.418C0.183,-0.449 0.204,-0.473 0.229,-0.489C0.254,-0.506 0.282,-0.514 0.313,-0.514C0.368,-0.514 0.41,-0.496 0.44,-0.46C0.47,-0.424 0.485,-0.373 0.485,-0.308L0.485,0L0.386,0L0.386,-0.307Z" style="fill-rule:nonzero;"/>
            </g>
            <g transform="matrix(118.863,0,0,118.863,941.269,391.478)">
                <path d="M0.21,0.002C0.169,0.002 0.139,-0.009 0.12,-0.031C0.101,-0.054 0.091,-0.088 0.091,-0.132L0.091,-0.654L0.191,-0.654L0.191,-0.131C0.191,-0.118 0.193,-0.109 0.198,-0.102C0.203,-0.096 0.21,-0.092 0.22,-0.092L0.268,-0.092L0.268,0.002L0.21,0.002ZM0.039,-0.507L0.268,-0.507L0.268,-0.417L0.039,-0.417L0.039,-0.507Z" style="fill-rule:nonzero;"/>
            </g>
        </g>
    </g>
</svg>
