<?xml version="1.0" encoding="UTF-8" standalone="no"?>
<!DOCTYPE svg PUBLIC "-//W3C//DTD SVG 1.1//EN" "http://www.w3.org/Graphics/SVG/1.1/DTD/svg11.dtd">
<svg width="100%" height="100%" viewBox="0 0 80 25" version="1.1" xmlns="http://www.w3.org/2000/svg" xmlns:xlink="http://www.w3.org/1999/xlink" xml:space="preserve" xmlns:serif="http://www.serif.com/" style="fill-rule:evenodd;clip-rule:evenodd;stroke-linecap:round;stroke-linejoin:round;stroke-miterlimit:1.5;">
    <g transform="matrix(1,0,0,1,-542.214,-306.568)">
        <g transform="matrix(0.150743,0,0,0.137039,477.268,265.096)">
            <rect x="434.984" y="307.193" width="517.123" height="172.236" style="fill:rgb(8,157,28);stroke:rgb(208,208,208);stroke-width:8.68px;"/>
        </g>
        <g transform="matrix(0.137039,0,0,0.137039,484.488,271.129)">
            <g transform="matrix(118.863,0,0,118.863,453.919,391.478)">
                <path d="M0.32,0.007C0.271,0.007 0.228,-0.004 0.191,-0.025C0.153,-0.047 0.125,-0.078 0.104,-0.118C0.083,-0.158 0.073,-0.205 0.073,-0.257L0.073,-0.452C0.073,-0.505 0.083,-0.551 0.104,-0.591C0.125,-0.631 0.153,-0.662 0.191,-0.684C0.228,-0.706 0.271,-0.717 0.32,-0.717C0.361,-0.717 0.398,-0.709 0.433,-0.691C0.467,-0.674 0.495,-0.649 0.518,-0.617C0.541,-0.585 0.557,-0.548 0.565,-0.506L0.463,-0.506C0.457,-0.528 0.446,-0.548 0.432,-0.566C0.417,-0.583 0.4,-0.597 0.381,-0.606C0.361,-0.615 0.341,-0.62 0.32,-0.62C0.291,-0.62 0.266,-0.613 0.244,-0.599C0.222,-0.585 0.205,-0.566 0.193,-0.54C0.181,-0.515 0.175,-0.486 0.175,-0.452L0.175,-0.257C0.175,-0.224 0.181,-0.195 0.193,-0.169C0.205,-0.144 0.222,-0.124 0.244,-0.111C0.266,-0.097 0.291,-0.09 0.32,-0.09C0.341,-0.09 0.362,-0.094 0.381,-0.103C0.4,-0.112 0.417,-0.125 0.432,-0.142C0.446,-0.159 0.457,-0.18 0.463,-0.204L0.565,-0.204C0.557,-0.162 0.541,-0.125 0.518,-0.093C0.495,-0.061 0.466,-0.036 0.432,-0.019C0.398,-0.001 0.361,0.007 0.32,0.007Z" style="fill-rule:nonzero;"/>
            </g>
            <g transform="matrix(118.863,0,0,118.863,523.972,391.478)">
                <rect x="0.063" y="-0.1" width="0.1" height="0.1" style="fill-rule:nonzero;"/>
            </g>
            <g transform="matrix(118.863,0,0,118.863,571.215,391.478)">
                <path d="M0.015,-0.71L0.123,-0.71L0.293,-0.153L0.464,-0.71L0.572,-0.71L0.341,0L0.246,0L0.015,-0.71Z" style="fill-rule:nonzero;"/>
            </g>
            <g transform="matrix(118.863,0,0,118.863,635.754,391.478)">
                <path d="M0.272,0.007C0.229,0.007 0.191,-0.001 0.16,-0.019C0.128,-0.036 0.105,-0.061 0.088,-0.094C0.072,-0.127 0.063,-0.167 0.063,-0.213L0.063,-0.296C0.063,-0.342 0.072,-0.381 0.088,-0.414C0.105,-0.447 0.128,-0.471 0.16,-0.489C0.191,-0.506 0.229,-0.514 0.272,-0.514C0.316,-0.514 0.354,-0.506 0.385,-0.489C0.417,-0.471 0.44,-0.447 0.457,-0.414C0.473,-0.381 0.481,-0.342 0.481,-0.296L0.481,-0.212C0.481,-0.166 0.473,-0.126 0.457,-0.094C0.44,-0.061 0.417,-0.036 0.385,-0.019C0.354,-0.001 0.316,0.007 0.272,0.007ZM0.272,-0.087C0.307,-0.087 0.334,-0.098 0.353,-0.12C0.372,-0.142 0.382,-0.173 0.382,-0.212L0.382,-0.296C0.382,-0.335 0.372,-0.366 0.353,-0.387C0.334,-0.409 0.307,-0.419 0.272,-0.419C0.238,-0.419 0.211,-0.409 0.192,-0.387C0.173,-0.366 0.163,-0.335 0.163,-0.296L0.163,-0.212C0.163,-0.173 0.173,-0.142 0.192,-0.12C0.211,-0.098 0.238,-0.087 0.272,-0.087Z" style="fill-rule:nonzero;"/>
            </g>
            <g transform="matrix(118.863,0,0,118.863,700.525,391.478)">
                <path d="M0.178,-0.131C0.178,-0.118 0.18,-0.109 0.186,-0.102C0.191,-0.096 0.199,-0.092 0.208,-0.092L0.255,-0.092L0.255,0.002L0.197,0.002C0.159,0.002 0.13,-0.009 0.109,-0.033C0.088,-0.056 0.078,-0.089 0.078,-0.132L0.078,-0.71L0.178,-0.71L0.178,-0.131Z" style="fill-rule:nonzero;"/>
            </g>
            <g transform="matrix(118.863,0,0,118.863,734.942,391.478)">
                <path d="M0.21,0.002C0.169,0.002 0.139,-0.009 0.12,-0.031C0.101,-0.054 0.091,-0.088 0.091,-0.132L0.091,-0.654L0.191,-0.654L0.191,-0.131C0.191,-0.118 0.193,-0.109 0.198,-0.102C0.203,-0.096 0.21,-0.092 0.22,-0.092L0.268,-0.092L0.268,0.002L0.21,0.002ZM0.039,-0.507L0.268,-0.507L0.268,-0.417L0.039,-0.417L0.039,-0.507Z" style="fill-rule:nonzero;"/>
            </g>
            <g transform="matrix(118.863,0,0,118.863,773.712,391.478)">
                <path d="M0.364,-0.321C0.364,-0.354 0.355,-0.38 0.338,-0.399C0.32,-0.417 0.295,-0.426 0.262,-0.426C0.242,-0.426 0.222,-0.423 0.203,-0.417C0.184,-0.411 0.166,-0.402 0.151,-0.391L0.079,-0.441C0.098,-0.464 0.123,-0.482 0.155,-0.495C0.186,-0.508 0.221,-0.514 0.259,-0.514C0.301,-0.514 0.337,-0.507 0.367,-0.492C0.397,-0.477 0.42,-0.456 0.436,-0.427C0.451,-0.399 0.459,-0.365 0.459,-0.326L0.459,0L0.364,0L0.364,-0.321ZM0.24,0.007C0.178,0.007 0.131,-0.006 0.1,-0.031C0.069,-0.057 0.054,-0.097 0.054,-0.149C0.054,-0.2 0.068,-0.237 0.096,-0.262C0.125,-0.287 0.167,-0.3 0.225,-0.3L0.369,-0.3L0.375,-0.22L0.225,-0.22C0.199,-0.22 0.18,-0.214 0.167,-0.202C0.154,-0.191 0.147,-0.173 0.147,-0.149C0.147,-0.124 0.156,-0.105 0.173,-0.092C0.19,-0.08 0.216,-0.074 0.251,-0.074C0.289,-0.074 0.317,-0.078 0.336,-0.086C0.355,-0.094 0.364,-0.107 0.364,-0.124L0.375,-0.053C0.366,-0.039 0.355,-0.028 0.342,-0.019C0.329,-0.01 0.314,-0.004 0.297,0.001C0.28,0.005 0.261,0.007 0.24,0.007Z" style="fill-rule:nonzero;"/>
            </g>
            <g transform="matrix(118.863,0,0,118.863,836.974,391.478)">
                <path d="M0.248,0.206C0.21,0.206 0.176,0.199 0.146,0.185C0.116,0.171 0.092,0.151 0.076,0.125L0.143,0.064C0.156,0.082 0.172,0.096 0.19,0.105C0.208,0.115 0.227,0.12 0.247,0.12C0.285,0.12 0.314,0.11 0.335,0.089C0.356,0.068 0.366,0.038 0.366,0L0.366,-0.507L0.466,-0.507L0.466,-0.015C0.466,0.031 0.457,0.071 0.44,0.104C0.423,0.138 0.398,0.163 0.366,0.18C0.333,0.197 0.294,0.206 0.248,0.206ZM0.239,0.009C0.202,0.009 0.17,0.001 0.144,-0.015C0.118,-0.031 0.098,-0.055 0.084,-0.086C0.07,-0.117 0.063,-0.154 0.063,-0.197L0.063,-0.309C0.063,-0.353 0.07,-0.39 0.083,-0.421C0.097,-0.452 0.116,-0.475 0.142,-0.491C0.167,-0.508 0.198,-0.516 0.234,-0.516C0.264,-0.516 0.291,-0.508 0.316,-0.492C0.341,-0.477 0.361,-0.455 0.376,-0.426L0.366,-0.323C0.366,-0.344 0.362,-0.363 0.354,-0.378C0.347,-0.393 0.335,-0.405 0.321,-0.413C0.306,-0.421 0.288,-0.425 0.267,-0.425C0.234,-0.425 0.208,-0.415 0.19,-0.394C0.172,-0.374 0.163,-0.345 0.163,-0.308L0.163,-0.197C0.163,-0.16 0.172,-0.132 0.19,-0.112C0.208,-0.092 0.234,-0.082 0.267,-0.082C0.288,-0.082 0.306,-0.086 0.321,-0.094C0.335,-0.103 0.347,-0.115 0.354,-0.13C0.362,-0.146 0.366,-0.165 0.366,-0.187L0.373,-0.08C0.363,-0.055 0.346,-0.034 0.323,-0.017C0.301,0 0.272,0.009 0.239,0.009Z" style="fill-rule:nonzero;"/>
            </g>
            <g transform="matrix(118.863,0,0,118.863,901.048,391.478)">
                <path d="M0.286,0.007C0.239,0.007 0.199,-0.001 0.166,-0.019C0.132,-0.037 0.107,-0.062 0.09,-0.096C0.072,-0.13 0.063,-0.172 0.063,-0.22L0.063,-0.277C0.063,-0.327 0.072,-0.37 0.089,-0.405C0.105,-0.441 0.13,-0.468 0.162,-0.486C0.194,-0.505 0.232,-0.514 0.277,-0.514C0.319,-0.514 0.355,-0.504 0.385,-0.482C0.415,-0.461 0.438,-0.431 0.454,-0.391C0.47,-0.351 0.478,-0.303 0.478,-0.247L0.478,-0.213L0.136,-0.213L0.136,-0.293L0.383,-0.293C0.38,-0.335 0.369,-0.367 0.351,-0.39C0.332,-0.413 0.308,-0.424 0.277,-0.424C0.239,-0.424 0.21,-0.412 0.189,-0.387C0.169,-0.362 0.158,-0.327 0.158,-0.282L0.158,-0.218C0.158,-0.176 0.169,-0.144 0.191,-0.121C0.214,-0.099 0.245,-0.087 0.286,-0.087C0.306,-0.087 0.326,-0.091 0.346,-0.1C0.366,-0.108 0.383,-0.119 0.399,-0.134L0.464,-0.068C0.439,-0.044 0.411,-0.026 0.38,-0.012C0.349,0.001 0.317,0.007 0.286,0.007Z" style="fill-rule:nonzero;"/>
            </g>
        </g>
    </g>
</svg>
