<?xml version="1.0" encoding="UTF-8" standalone="no"?>
<!DOCTYPE svg PUBLIC "-//W3C//DTD SVG 1.1//EN" "http://www.w3.org/Graphics/SVG/1.1/DTD/svg11.dtd">
<svg width="100%" height="100%" viewBox="0 0 80 25" version="1.1" xmlns="http://www.w3.org/2000/svg" xmlns:xlink="http://www.w3.org/1999/xlink" xml:space="preserve" xmlns:serif="http://www.serif.com/" style="fill-rule:evenodd;clip-rule:evenodd;stroke-linecap:round;stroke-linejoin:round;stroke-miterlimit:1.5;">
    <g transform="matrix(1,0,0,1,-151.476,-386.568)">
        <g transform="matrix(0.150743,0,0,0.137039,86.5302,345.096)">
            <rect x="434.984" y="307.193" width="517.123" height="172.236" style="fill:rgb(76,81,246);stroke:rgb(208,208,208);stroke-width:8.68px;"/>
        </g>
        <g transform="matrix(0.137039,0,0,0.137039,92.7715,351.129)">
            <g transform="matrix(118.863,0,0,118.863,453.919,391.478)">
                <path d="M0.088,-0.71L0.188,-0.71L0.188,0L0.088,0L0.088,-0.71ZM0.136,-0.095L0.544,-0.095L0.544,0L0.136,0L0.136,-0.095ZM0.136,-0.4L0.49,-0.4L0.49,-0.305L0.136,-0.305L0.136,-0.4ZM0.136,-0.71L0.544,-0.71L0.544,-0.615L0.136,-0.615L0.136,-0.71Z" style="fill-rule:nonzero;"/>
            </g>
            <g transform="matrix(118.863,0,0,118.863,524.958,391.478)">
                <path d="M0.088,-0.71L0.178,-0.71L0.525,-0.161L0.514,-0.148L0.514,-0.71L0.612,-0.71L0.612,0L0.521,0L0.175,-0.541L0.187,-0.554L0.187,0L0.088,0L0.088,-0.71Z" style="fill-rule:nonzero;"/>
            </g>
            <g transform="matrix(118.863,0,0,118.863,608.186,391.478)">
                <path d="M0.281,-0.71L0.366,-0.71L0.628,0L0.521,0L0.324,-0.573L0.127,0L0.02,0L0.281,-0.71ZM0.14,-0.25L0.514,-0.25L0.514,-0.156L0.14,-0.156L0.14,-0.25Z" style="fill-rule:nonzero;"/>
            </g>
            <g transform="matrix(118.863,0,0,118.863,685.145,391.478)">
                <path d="M0.146,-0.092L0.339,-0.092C0.389,-0.092 0.426,-0.102 0.449,-0.121C0.472,-0.14 0.484,-0.167 0.484,-0.202L0.484,-0.204C0.484,-0.228 0.48,-0.248 0.471,-0.266C0.463,-0.283 0.45,-0.296 0.432,-0.305C0.414,-0.315 0.391,-0.319 0.363,-0.319L0.146,-0.319L0.146,-0.409L0.363,-0.409C0.4,-0.409 0.428,-0.418 0.447,-0.435C0.465,-0.452 0.475,-0.478 0.475,-0.512C0.475,-0.547 0.464,-0.574 0.443,-0.591C0.423,-0.609 0.391,-0.618 0.35,-0.618L0.146,-0.618L0.146,-0.71L0.368,-0.71C0.414,-0.71 0.452,-0.702 0.483,-0.687C0.514,-0.671 0.537,-0.649 0.552,-0.62C0.568,-0.591 0.575,-0.557 0.575,-0.518C0.575,-0.493 0.57,-0.47 0.561,-0.449C0.552,-0.428 0.537,-0.409 0.518,-0.394C0.498,-0.379 0.474,-0.369 0.446,-0.364C0.474,-0.36 0.499,-0.349 0.52,-0.333C0.541,-0.317 0.557,-0.297 0.568,-0.273C0.579,-0.249 0.584,-0.223 0.584,-0.195L0.584,-0.193C0.584,-0.155 0.576,-0.121 0.559,-0.092C0.542,-0.063 0.518,-0.04 0.486,-0.024C0.455,-0.008 0.418,0 0.376,0L0.146,0L0.146,-0.092ZM0.088,-0.71L0.187,-0.71L0.187,0L0.088,0L0.088,-0.71Z" style="fill-rule:nonzero;"/>
            </g>
            <g transform="matrix(118.863,0,0,118.863,761.872,391.478)">
                <path d="M0.088,-0.71L0.188,-0.71L0.188,0L0.088,0L0.088,-0.71ZM0.138,-0.095L0.544,-0.095L0.544,0L0.138,0L0.138,-0.095Z" style="fill-rule:nonzero;"/>
            </g>
            <g transform="matrix(118.863,0,0,118.863,830.009,391.478)">
                <path d="M0.088,-0.71L0.188,-0.71L0.188,0L0.088,0L0.088,-0.71ZM0.136,-0.095L0.544,-0.095L0.544,0L0.136,0L0.136,-0.095ZM0.136,-0.4L0.49,-0.4L0.49,-0.305L0.136,-0.305L0.136,-0.4ZM0.136,-0.71L0.544,-0.71L0.544,-0.615L0.136,-0.615L0.136,-0.71Z" style="fill-rule:nonzero;"/>
            </g>
            <g transform="matrix(118.863,0,0,118.863,901.048,391.478)">
                <path d="M0.155,-0.095L0.316,-0.095C0.368,-0.095 0.409,-0.108 0.438,-0.135C0.467,-0.163 0.481,-0.201 0.481,-0.25L0.481,-0.459C0.481,-0.509 0.467,-0.547 0.438,-0.574C0.409,-0.602 0.368,-0.615 0.316,-0.615L0.155,-0.615L0.155,-0.71L0.313,-0.71C0.37,-0.71 0.419,-0.7 0.459,-0.68C0.499,-0.66 0.53,-0.631 0.551,-0.593C0.572,-0.555 0.583,-0.509 0.583,-0.456L0.583,-0.254C0.583,-0.201 0.572,-0.155 0.551,-0.117C0.53,-0.079 0.499,-0.05 0.459,-0.03C0.418,-0.01 0.369,0 0.313,0L0.155,0L0.155,-0.095ZM0.088,-0.71L0.188,-0.71L0.188,0L0.088,0L0.088,-0.71Z" style="fill-rule:nonzero;"/>
            </g>
        </g>
    </g>
</svg>
