<?xml version="1.0" encoding="UTF-8" standalone="no"?>
<!DOCTYPE svg PUBLIC "-//W3C//DTD SVG 1.1//EN" "http://www.w3.org/Graphics/SVG/1.1/DTD/svg11.dtd">
<svg width="100%" height="100%" viewBox="0 0 428 19" version="1.1" xmlns="http://www.w3.org/2000/svg" xmlns:xlink="http://www.w3.org/1999/xlink" xml:space="preserve" xmlns:serif="http://www.serif.com/" style="fill-rule:evenodd;clip-rule:evenodd;stroke-linejoin:round;stroke-miterlimit:2;">
    <g transform="matrix(1,0,0,1,-504.398,-924.116)">
        <g transform="matrix(0.137039,0,0,0.137039,605.184,888.4)">
            <g transform="matrix(182.429,0,0,182.429,453.919,391.478)">
                <path d="M0.573,-0.382L0.573,-0.258C0.573,-0.206 0.563,-0.159 0.542,-0.119C0.522,-0.079 0.493,-0.048 0.455,-0.026C0.418,-0.004 0.374,0.007 0.325,0.007C0.275,0.007 0.231,-0.003 0.193,-0.024C0.155,-0.044 0.125,-0.074 0.104,-0.111C0.084,-0.149 0.073,-0.193 0.073,-0.243L0.073,-0.452C0.073,-0.505 0.083,-0.551 0.104,-0.591C0.125,-0.631 0.154,-0.662 0.191,-0.684C0.229,-0.706 0.272,-0.717 0.322,-0.717C0.362,-0.717 0.4,-0.709 0.434,-0.691C0.469,-0.674 0.497,-0.649 0.521,-0.617C0.544,-0.585 0.559,-0.548 0.567,-0.506L0.459,-0.506C0.454,-0.53 0.444,-0.551 0.43,-0.568C0.416,-0.585 0.399,-0.598 0.38,-0.607C0.361,-0.616 0.342,-0.62 0.322,-0.62C0.292,-0.62 0.267,-0.613 0.245,-0.599C0.222,-0.585 0.205,-0.566 0.193,-0.54C0.181,-0.515 0.175,-0.486 0.175,-0.452L0.175,-0.243C0.175,-0.212 0.181,-0.185 0.194,-0.162C0.206,-0.139 0.224,-0.122 0.246,-0.109C0.269,-0.096 0.295,-0.09 0.325,-0.09C0.354,-0.09 0.38,-0.096 0.402,-0.11C0.424,-0.123 0.441,-0.142 0.453,-0.167C0.465,-0.192 0.471,-0.222 0.471,-0.256L0.471,-0.287L0.327,-0.287L0.327,-0.382L0.573,-0.382Z" style="fill-rule:nonzero;"/>
            </g>
            <g transform="matrix(182.429,0,0,182.429,571.857,391.478)">
                <path d="M0.364,-0.321C0.364,-0.354 0.355,-0.38 0.338,-0.399C0.32,-0.417 0.295,-0.426 0.262,-0.426C0.242,-0.426 0.222,-0.423 0.203,-0.417C0.184,-0.411 0.166,-0.402 0.151,-0.391L0.079,-0.441C0.098,-0.464 0.123,-0.482 0.155,-0.495C0.186,-0.508 0.221,-0.514 0.259,-0.514C0.301,-0.514 0.337,-0.507 0.367,-0.492C0.397,-0.477 0.42,-0.456 0.436,-0.427C0.451,-0.399 0.459,-0.365 0.459,-0.326L0.459,0L0.364,0L0.364,-0.321ZM0.24,0.007C0.178,0.007 0.131,-0.006 0.1,-0.031C0.069,-0.057 0.054,-0.097 0.054,-0.149C0.054,-0.2 0.068,-0.237 0.096,-0.262C0.125,-0.287 0.167,-0.3 0.225,-0.3L0.369,-0.3L0.375,-0.22L0.225,-0.22C0.199,-0.22 0.18,-0.214 0.167,-0.202C0.154,-0.191 0.147,-0.173 0.147,-0.149C0.147,-0.124 0.156,-0.105 0.173,-0.092C0.19,-0.08 0.216,-0.074 0.251,-0.074C0.289,-0.074 0.317,-0.078 0.336,-0.086C0.355,-0.094 0.364,-0.107 0.364,-0.124L0.375,-0.053C0.366,-0.039 0.355,-0.028 0.342,-0.019C0.329,-0.01 0.314,-0.004 0.297,0.001C0.28,0.005 0.261,0.007 0.24,0.007Z" style="fill-rule:nonzero;"/>
            </g>
            <g transform="matrix(182.429,0,0,182.429,668.951,391.478)">
                <path d="M0.257,0.007C0.227,0.007 0.199,0.004 0.173,-0.001C0.147,-0.007 0.122,-0.016 0.1,-0.028C0.077,-0.04 0.056,-0.054 0.037,-0.072L0.096,-0.145C0.123,-0.124 0.15,-0.108 0.177,-0.098C0.204,-0.087 0.231,-0.082 0.257,-0.082C0.297,-0.082 0.326,-0.088 0.346,-0.1C0.366,-0.113 0.375,-0.131 0.375,-0.155C0.375,-0.172 0.37,-0.184 0.359,-0.192C0.349,-0.2 0.335,-0.205 0.319,-0.208C0.303,-0.211 0.281,-0.214 0.252,-0.216C0.249,-0.216 0.247,-0.216 0.244,-0.216L0.228,-0.217C0.195,-0.22 0.167,-0.225 0.144,-0.232C0.121,-0.239 0.102,-0.252 0.087,-0.271C0.072,-0.29 0.064,-0.318 0.064,-0.354C0.064,-0.389 0.072,-0.419 0.086,-0.443C0.101,-0.467 0.123,-0.484 0.152,-0.496C0.181,-0.508 0.217,-0.514 0.261,-0.514C0.287,-0.514 0.312,-0.512 0.336,-0.507C0.36,-0.502 0.383,-0.495 0.405,-0.485C0.427,-0.476 0.448,-0.463 0.468,-0.449L0.408,-0.376C0.382,-0.392 0.357,-0.404 0.333,-0.413C0.308,-0.421 0.284,-0.425 0.261,-0.425C0.227,-0.425 0.201,-0.419 0.185,-0.407C0.168,-0.396 0.159,-0.379 0.159,-0.355C0.159,-0.342 0.164,-0.332 0.174,-0.325C0.183,-0.318 0.195,-0.313 0.21,-0.311C0.225,-0.309 0.245,-0.307 0.272,-0.305L0.285,-0.304L0.288,-0.304C0.289,-0.304 0.29,-0.304 0.291,-0.304C0.326,-0.301 0.357,-0.297 0.382,-0.29C0.406,-0.282 0.427,-0.268 0.444,-0.247C0.461,-0.226 0.47,-0.195 0.47,-0.155C0.47,-0.119 0.462,-0.089 0.446,-0.065C0.431,-0.041 0.407,-0.023 0.376,-0.011C0.344,0.001 0.305,0.007 0.257,0.007Z" style="fill-rule:nonzero;"/>
            </g>
            <g transform="matrix(182.429,0,0,182.429,794.727,391.478)">
                <path d="M0.088,-0.71L0.188,-0.71L0.188,0L0.088,0L0.088,-0.71ZM0.137,-0.394L0.481,-0.394L0.481,-0.299L0.137,-0.299L0.137,-0.394ZM0.137,-0.71L0.535,-0.71L0.535,-0.615L0.137,-0.615L0.137,-0.71Z" style="fill-rule:nonzero;"/>
            </g>
            <g transform="matrix(182.429,0,0,182.429,896.72,391.478)">
                <path d="M0.178,-0.131C0.178,-0.118 0.18,-0.109 0.186,-0.102C0.191,-0.096 0.199,-0.092 0.208,-0.092L0.255,-0.092L0.255,0.002L0.197,0.002C0.159,0.002 0.13,-0.009 0.109,-0.033C0.088,-0.056 0.078,-0.089 0.078,-0.132L0.078,-0.71L0.178,-0.71L0.178,-0.131Z" style="fill-rule:nonzero;"/>
            </g>
            <g transform="matrix(182.429,0,0,182.429,949.543,391.478)">
                <path d="M0.272,0.007C0.229,0.007 0.191,-0.001 0.16,-0.019C0.128,-0.036 0.105,-0.061 0.088,-0.094C0.072,-0.127 0.063,-0.167 0.063,-0.213L0.063,-0.296C0.063,-0.342 0.072,-0.381 0.088,-0.414C0.105,-0.447 0.128,-0.471 0.16,-0.489C0.191,-0.506 0.229,-0.514 0.272,-0.514C0.316,-0.514 0.354,-0.506 0.385,-0.489C0.417,-0.471 0.44,-0.447 0.457,-0.414C0.473,-0.381 0.481,-0.342 0.481,-0.296L0.481,-0.212C0.481,-0.166 0.473,-0.126 0.457,-0.094C0.44,-0.061 0.417,-0.036 0.385,-0.019C0.354,-0.001 0.316,0.007 0.272,0.007ZM0.272,-0.087C0.307,-0.087 0.334,-0.098 0.353,-0.12C0.372,-0.142 0.382,-0.173 0.382,-0.212L0.382,-0.296C0.382,-0.335 0.372,-0.366 0.353,-0.387C0.334,-0.409 0.307,-0.419 0.272,-0.419C0.238,-0.419 0.211,-0.409 0.192,-0.387C0.173,-0.366 0.163,-0.335 0.163,-0.296L0.163,-0.212C0.163,-0.173 0.173,-0.142 0.192,-0.12C0.211,-0.098 0.238,-0.087 0.272,-0.087Z" style="fill-rule:nonzero;"/>
            </g>
            <g transform="matrix(182.429,0,0,182.429,1047.17,391.478)">
                <path d="M0.034,-0.507L0.138,-0.507L0.228,-0.145L0.354,-0.507L0.424,-0.507L0.55,-0.145L0.64,-0.507L0.744,-0.507L0.588,0L0.513,0L0.389,-0.35L0.266,0L0.19,0L0.034,-0.507Z" style="fill-rule:nonzero;"/>
            </g>
        </g>
        <g transform="matrix(0.597572,0,0,1,477.867,229.635)">
            <path d="M273.406,698.429L273.406,708.686L44.398,708.686L44.398,698.429L273.406,698.429ZM535.822,698.429L760.152,698.429L760.152,708.686L535.822,708.686L535.822,698.429Z" style="fill:rgb(6,20,222);"/>
        </g>
    </g>
</svg>
