<?xml version="1.0" encoding="UTF-8" standalone="no"?>
<!DOCTYPE svg PUBLIC "-//W3C//DTD SVG 1.1//EN" "http://www.w3.org/Graphics/SVG/1.1/DTD/svg11.dtd">
<svg width="100%" height="100%" viewBox="0 0 80 25" version="1.1" xmlns="http://www.w3.org/2000/svg" xmlns:xlink="http://www.w3.org/1999/xlink" xml:space="preserve" xmlns:serif="http://www.serif.com/" style="fill-rule:evenodd;clip-rule:evenodd;stroke-linecap:round;stroke-linejoin:round;stroke-miterlimit:1.5;">
    <g transform="matrix(1,0,0,1,-46.3679,-306.568)">
        <g transform="matrix(0.150743,0,0,0.137039,-18.5779,265.096)">
            <rect x="434.984" y="307.193" width="517.123" height="172.236" style="fill:rgb(8,157,28);stroke:rgb(208,208,208);stroke-width:8.68px;"/>
        </g>
        <g transform="matrix(0.137039,0,0,0.137039,5.20093,271.129)">
            <g transform="matrix(118.863,0,0,118.863,453.919,391.478)">
                <path d="M0.491,-0.71L0.591,-0.71L0.591,0L0.491,0L0.491,-0.71ZM0.088,-0.71L0.188,-0.71L0.188,0L0.088,0L0.088,-0.71ZM0.15,-0.397L0.544,-0.397L0.544,-0.302L0.15,-0.302L0.15,-0.397Z" style="fill-rule:nonzero;"/>
            </g>
            <g transform="matrix(118.863,0,0,118.863,534.593,391.478)">
                <rect x="0.088" y="-0.71" width="0.1" height="0.71" style="fill-rule:nonzero;"/>
            </g>
            <g transform="matrix(118.863,0,0,118.863,567.326,391.478)">
                <path d="M0.573,-0.382L0.573,-0.258C0.573,-0.206 0.563,-0.159 0.542,-0.119C0.522,-0.079 0.493,-0.048 0.455,-0.026C0.418,-0.004 0.374,0.007 0.325,0.007C0.275,0.007 0.231,-0.003 0.193,-0.024C0.155,-0.044 0.125,-0.074 0.104,-0.111C0.084,-0.149 0.073,-0.193 0.073,-0.243L0.073,-0.452C0.073,-0.505 0.083,-0.551 0.104,-0.591C0.125,-0.631 0.154,-0.662 0.191,-0.684C0.229,-0.706 0.272,-0.717 0.322,-0.717C0.362,-0.717 0.4,-0.709 0.434,-0.691C0.469,-0.674 0.497,-0.649 0.521,-0.617C0.544,-0.585 0.559,-0.548 0.567,-0.506L0.459,-0.506C0.454,-0.53 0.444,-0.551 0.43,-0.568C0.416,-0.585 0.399,-0.598 0.38,-0.607C0.361,-0.616 0.342,-0.62 0.322,-0.62C0.292,-0.62 0.267,-0.613 0.245,-0.599C0.222,-0.585 0.205,-0.566 0.193,-0.54C0.181,-0.515 0.175,-0.486 0.175,-0.452L0.175,-0.243C0.175,-0.212 0.181,-0.185 0.194,-0.162C0.206,-0.139 0.224,-0.122 0.246,-0.109C0.269,-0.096 0.295,-0.09 0.325,-0.09C0.354,-0.09 0.38,-0.096 0.402,-0.11C0.424,-0.123 0.441,-0.142 0.453,-0.167C0.465,-0.192 0.471,-0.222 0.471,-0.256L0.471,-0.287L0.327,-0.287L0.327,-0.382L0.573,-0.382Z" style="fill-rule:nonzero;"/>
            </g>
            <g transform="matrix(118.863,0,0,118.863,644.169,391.478)">
                <path d="M0.491,-0.71L0.591,-0.71L0.591,0L0.491,0L0.491,-0.71ZM0.088,-0.71L0.188,-0.71L0.188,0L0.088,0L0.088,-0.71ZM0.15,-0.397L0.544,-0.397L0.544,-0.302L0.15,-0.302L0.15,-0.397Z" style="fill-rule:nonzero;"/>
            </g>
        </g>
    </g>
</svg>
