<?xml version="1.0" encoding="UTF-8" standalone="no"?>
<!DOCTYPE svg PUBLIC "-//W3C//DTD SVG 1.1//EN" "http://www.w3.org/Graphics/SVG/1.1/DTD/svg11.dtd">
<svg width="100%" height="100%" viewBox="0 0 80 25" version="1.1" xmlns="http://www.w3.org/2000/svg" xmlns:xlink="http://www.w3.org/1999/xlink" xml:space="preserve" xmlns:serif="http://www.serif.com/" style="fill-rule:evenodd;clip-rule:evenodd;stroke-linecap:round;stroke-linejoin:round;stroke-miterlimit:1.5;">
    <g transform="matrix(1,0,0,1,-46.3679,-346.568)">
        <g transform="matrix(0.150743,0,0,0.137039,-18.5779,305.096)">
            <rect x="434.984" y="307.193" width="517.123" height="172.236" style="fill:rgb(75,81,246);stroke:rgb(208,208,208);stroke-width:8.68px;"/>
        </g>
        <g transform="matrix(0.137039,0,0,0.137039,6.42577,311.129)">
            <g transform="matrix(118.863,0,0,118.863,453.919,391.478)">
                <path d="M0.088,-0.71L0.188,-0.71L0.188,0L0.088,0L0.088,-0.71ZM0.138,-0.095L0.544,-0.095L0.544,0L0.138,0L0.138,-0.095Z" style="fill-rule:nonzero;"/>
            </g>
            <g transform="matrix(118.863,0,0,118.863,522.056,391.478)">
                <path d="M0.323,0.007C0.273,0.007 0.23,-0.003 0.192,-0.025C0.154,-0.047 0.125,-0.077 0.104,-0.117C0.084,-0.156 0.073,-0.202 0.073,-0.254L0.073,-0.456C0.073,-0.508 0.084,-0.553 0.104,-0.593C0.125,-0.633 0.154,-0.663 0.192,-0.685C0.23,-0.706 0.273,-0.717 0.323,-0.717C0.372,-0.717 0.416,-0.706 0.454,-0.685C0.491,-0.663 0.521,-0.633 0.541,-0.593C0.562,-0.553 0.572,-0.508 0.572,-0.456L0.572,-0.254C0.572,-0.202 0.562,-0.156 0.541,-0.117C0.521,-0.077 0.491,-0.047 0.454,-0.025C0.416,-0.003 0.372,0.007 0.323,0.007ZM0.323,-0.091C0.352,-0.091 0.378,-0.097 0.4,-0.111C0.422,-0.124 0.44,-0.142 0.452,-0.167C0.464,-0.191 0.47,-0.219 0.47,-0.251L0.47,-0.459C0.47,-0.491 0.464,-0.519 0.452,-0.543C0.44,-0.567 0.422,-0.586 0.4,-0.599C0.378,-0.613 0.352,-0.619 0.323,-0.619C0.293,-0.619 0.268,-0.613 0.245,-0.599C0.223,-0.586 0.206,-0.567 0.194,-0.543C0.181,-0.519 0.175,-0.491 0.175,-0.459L0.175,-0.251C0.175,-0.219 0.181,-0.191 0.194,-0.167C0.206,-0.142 0.223,-0.124 0.245,-0.111C0.268,-0.097 0.293,-0.091 0.323,-0.091Z" style="fill-rule:nonzero;"/>
            </g>
            <g transform="matrix(118.863,0,0,118.863,597.623,391.478)">
                <path d="M0.389,-0.71L0.458,-0.71L0.603,-0.153L0.729,-0.71L0.832,-0.71L0.659,0L0.557,0L0.426,-0.496L0.29,0L0.188,0L0.015,-0.71L0.118,-0.71L0.244,-0.153L0.389,-0.71Z" style="fill-rule:nonzero;"/>
            </g>
        </g>
    </g>
</svg>
