<?xml version="1.0" encoding="UTF-8" standalone="no"?>
<!DOCTYPE svg PUBLIC "-//W3C//DTD SVG 1.1//EN" "http://www.w3.org/Graphics/SVG/1.1/DTD/svg11.dtd">
<svg width="100%" height="100%" viewBox="0 0 80 25" version="1.1" xmlns="http://www.w3.org/2000/svg" xmlns:xlink="http://www.w3.org/1999/xlink" xml:space="preserve" xmlns:serif="http://www.serif.com/" style="fill-rule:evenodd;clip-rule:evenodd;stroke-linecap:round;stroke-linejoin:round;stroke-miterlimit:1.5;">
    <g transform="matrix(1,0,0,1,-46.3679,-425.418)">
        <g transform="matrix(0.150743,0,0,0.137039,-18.5779,383.946)">
            <rect x="434.984" y="307.193" width="517.123" height="172.236" style="fill:rgb(178,178,178);stroke:rgb(208,208,208);stroke-width:8.68px;"/>
        </g>
        <g transform="matrix(0.137039,0,0,0.137039,9.14987,389.919)">
            <g transform="matrix(118.863,0,0,118.863,453.919,391.478)">
                <path d="M0.088,-0.71L0.178,-0.71L0.525,-0.161L0.514,-0.148L0.514,-0.71L0.612,-0.71L0.612,0L0.521,0L0.175,-0.541L0.187,-0.554L0.187,0L0.088,0L0.088,-0.71Z" style="fill-rule:nonzero;"/>
            </g>
            <g transform="matrix(118.863,0,0,118.863,537.146,391.478)">
                <path d="M0.09,0.135L-0.005,0.135L0.325,-0.794L0.42,-0.794L0.09,0.135Z" style="fill-rule:nonzero;"/>
            </g>
            <g transform="matrix(118.863,0,0,118.863,582.126,391.478)">
                <path d="M0.281,-0.71L0.366,-0.71L0.628,0L0.521,0L0.324,-0.573L0.127,0L0.02,0L0.281,-0.71ZM0.14,-0.25L0.514,-0.25L0.514,-0.156L0.14,-0.156L0.14,-0.25Z" style="fill-rule:nonzero;"/>
            </g>
        </g>
    </g>
</svg>
