<?xml version="1.0" encoding="UTF-8" standalone="no"?>
<!DOCTYPE svg PUBLIC "-//W3C//DTD SVG 1.1//EN" "http://www.w3.org/Graphics/SVG/1.1/DTD/svg11.dtd">
<svg width="100%" height="100%" viewBox="0 0 637 24" version="1.1" xmlns="http://www.w3.org/2000/svg" xmlns:xlink="http://www.w3.org/1999/xlink" xml:space="preserve" xmlns:serif="http://www.serif.com/" style="fill-rule:evenodd;clip-rule:evenodd;stroke-linejoin:round;stroke-miterlimit:2;">
    <g transform="matrix(1,0,0,1,-44.398,-1024.12)">
        <g transform="matrix(0.137039,0,0,0.137039,197.677,988.4)">
            <g transform="matrix(182.429,0,0,182.429,453.919,391.478)">
                <path d="M0.281,-0.71L0.366,-0.71L0.628,0L0.521,0L0.324,-0.573L0.127,0L0.02,0L0.281,-0.71ZM0.14,-0.25L0.514,-0.25L0.514,-0.156L0.14,-0.156L0.14,-0.25Z" style="fill-rule:nonzero;"/>
            </g>
            <g transform="matrix(182.429,0,0,182.429,572.035,391.478)">
                <path d="M0.178,-0.131C0.178,-0.118 0.18,-0.109 0.186,-0.102C0.191,-0.096 0.199,-0.092 0.208,-0.092L0.255,-0.092L0.255,0.002L0.197,0.002C0.159,0.002 0.13,-0.009 0.109,-0.033C0.088,-0.056 0.078,-0.089 0.078,-0.132L0.078,-0.71L0.178,-0.71L0.178,-0.131Z" style="fill-rule:nonzero;"/>
            </g>
            <g transform="matrix(182.429,0,0,182.429,624.858,391.478)">
                <path d="M0.178,-0.131C0.178,-0.118 0.18,-0.109 0.186,-0.102C0.191,-0.096 0.199,-0.092 0.208,-0.092L0.255,-0.092L0.255,0.002L0.197,0.002C0.159,0.002 0.13,-0.009 0.109,-0.033C0.088,-0.056 0.078,-0.089 0.078,-0.132L0.078,-0.71L0.178,-0.71L0.178,-0.131Z" style="fill-rule:nonzero;"/>
            </g>
            <g transform="matrix(182.429,0,0,182.429,708.857,391.478)">
                <path d="M0.139,-0.37L0.366,-0.37C0.388,-0.37 0.407,-0.375 0.423,-0.385C0.439,-0.395 0.452,-0.41 0.461,-0.428C0.47,-0.447 0.474,-0.468 0.474,-0.492C0.474,-0.517 0.47,-0.538 0.461,-0.557C0.452,-0.575 0.439,-0.59 0.423,-0.6C0.407,-0.61 0.388,-0.615 0.366,-0.615L0.139,-0.615L0.139,-0.71L0.363,-0.71C0.405,-0.71 0.442,-0.701 0.475,-0.683C0.507,-0.665 0.532,-0.639 0.55,-0.606C0.567,-0.574 0.576,-0.535 0.576,-0.492C0.576,-0.449 0.567,-0.411 0.55,-0.378C0.532,-0.345 0.507,-0.32 0.475,-0.302C0.442,-0.284 0.405,-0.275 0.363,-0.275L0.139,-0.275L0.139,-0.37ZM0.088,-0.71L0.188,-0.71L0.188,0L0.088,0L0.088,-0.71Z" style="fill-rule:nonzero;"/>
            </g>
            <g transform="matrix(182.429,0,0,182.429,814.413,391.478)">
                <path d="M0.272,0.007C0.229,0.007 0.191,-0.001 0.16,-0.019C0.128,-0.036 0.105,-0.061 0.088,-0.094C0.072,-0.127 0.063,-0.167 0.063,-0.213L0.063,-0.296C0.063,-0.342 0.072,-0.381 0.088,-0.414C0.105,-0.447 0.128,-0.471 0.16,-0.489C0.191,-0.506 0.229,-0.514 0.272,-0.514C0.316,-0.514 0.354,-0.506 0.385,-0.489C0.417,-0.471 0.44,-0.447 0.457,-0.414C0.473,-0.381 0.481,-0.342 0.481,-0.296L0.481,-0.212C0.481,-0.166 0.473,-0.126 0.457,-0.094C0.44,-0.061 0.417,-0.036 0.385,-0.019C0.354,-0.001 0.316,0.007 0.272,0.007ZM0.272,-0.087C0.307,-0.087 0.334,-0.098 0.353,-0.12C0.372,-0.142 0.382,-0.173 0.382,-0.212L0.382,-0.296C0.382,-0.335 0.372,-0.366 0.353,-0.387C0.334,-0.409 0.307,-0.419 0.272,-0.419C0.238,-0.419 0.211,-0.409 0.192,-0.387C0.173,-0.366 0.163,-0.335 0.163,-0.296L0.163,-0.212C0.163,-0.173 0.173,-0.142 0.192,-0.12C0.211,-0.098 0.238,-0.087 0.272,-0.087Z" style="fill-rule:nonzero;"/>
            </g>
            <g transform="matrix(182.429,0,0,182.429,912.041,391.478)">
                <path d="M0.034,-0.507L0.138,-0.507L0.228,-0.145L0.354,-0.507L0.424,-0.507L0.55,-0.145L0.64,-0.507L0.744,-0.507L0.588,0L0.513,0L0.389,-0.35L0.266,0L0.19,0L0.034,-0.507Z" style="fill-rule:nonzero;"/>
            </g>
            <g transform="matrix(182.429,0,0,182.429,1051.36,391.478)">
                <path d="M0.286,0.007C0.239,0.007 0.199,-0.001 0.166,-0.019C0.132,-0.037 0.107,-0.062 0.09,-0.096C0.072,-0.13 0.063,-0.172 0.063,-0.22L0.063,-0.277C0.063,-0.327 0.072,-0.37 0.089,-0.405C0.105,-0.441 0.13,-0.468 0.162,-0.486C0.194,-0.505 0.232,-0.514 0.277,-0.514C0.319,-0.514 0.355,-0.504 0.385,-0.482C0.415,-0.461 0.438,-0.431 0.454,-0.391C0.47,-0.351 0.478,-0.303 0.478,-0.247L0.478,-0.213L0.136,-0.213L0.136,-0.293L0.383,-0.293C0.38,-0.335 0.369,-0.367 0.351,-0.39C0.332,-0.413 0.308,-0.424 0.277,-0.424C0.239,-0.424 0.21,-0.412 0.189,-0.387C0.169,-0.362 0.158,-0.327 0.158,-0.282L0.158,-0.218C0.158,-0.176 0.169,-0.144 0.191,-0.121C0.214,-0.099 0.245,-0.087 0.286,-0.087C0.306,-0.087 0.326,-0.091 0.346,-0.1C0.366,-0.108 0.383,-0.119 0.399,-0.134L0.464,-0.068C0.439,-0.044 0.411,-0.026 0.38,-0.012C0.349,0.001 0.317,0.007 0.286,0.007Z" style="fill-rule:nonzero;"/>
            </g>
            <g transform="matrix(182.429,0,0,182.429,1149.16,391.478)">
                <path d="M0.078,-0.507L0.178,-0.507L0.178,0L0.078,0L0.078,-0.507ZM0.357,-0.387C0.348,-0.397 0.337,-0.406 0.324,-0.411C0.31,-0.417 0.295,-0.419 0.277,-0.419C0.246,-0.419 0.221,-0.411 0.204,-0.393C0.186,-0.376 0.178,-0.352 0.178,-0.321L0.167,-0.418C0.183,-0.449 0.203,-0.472 0.228,-0.489C0.253,-0.506 0.28,-0.514 0.31,-0.514C0.333,-0.514 0.354,-0.511 0.373,-0.504C0.392,-0.497 0.408,-0.488 0.422,-0.475L0.357,-0.387Z" style="fill-rule:nonzero;"/>
            </g>
            <g transform="matrix(182.429,0,0,182.429,1258.19,391.478)">
                <path d="M0.301,0.007C0.267,0.007 0.235,0.004 0.204,-0.002C0.174,-0.009 0.145,-0.019 0.118,-0.032C0.092,-0.045 0.067,-0.061 0.044,-0.081L0.106,-0.157C0.133,-0.133 0.163,-0.116 0.195,-0.104C0.228,-0.092 0.263,-0.086 0.301,-0.086C0.353,-0.086 0.393,-0.096 0.421,-0.115C0.449,-0.134 0.463,-0.161 0.463,-0.196L0.463,-0.196C0.463,-0.221 0.457,-0.241 0.444,-0.255C0.431,-0.27 0.415,-0.28 0.394,-0.287C0.374,-0.294 0.348,-0.301 0.315,-0.307C0.314,-0.307 0.313,-0.307 0.312,-0.307C0.311,-0.307 0.31,-0.307 0.309,-0.308L0.302,-0.309C0.254,-0.317 0.216,-0.326 0.186,-0.337C0.156,-0.347 0.131,-0.366 0.109,-0.393C0.088,-0.42 0.078,-0.459 0.078,-0.509L0.078,-0.509C0.078,-0.553 0.087,-0.591 0.107,-0.622C0.127,-0.653 0.156,-0.677 0.193,-0.693C0.231,-0.709 0.277,-0.717 0.33,-0.717C0.355,-0.717 0.38,-0.715 0.405,-0.709C0.429,-0.703 0.453,-0.695 0.477,-0.684C0.501,-0.673 0.525,-0.66 0.548,-0.643L0.491,-0.564C0.464,-0.584 0.437,-0.599 0.41,-0.609C0.384,-0.619 0.357,-0.624 0.33,-0.624C0.281,-0.624 0.243,-0.614 0.217,-0.594C0.19,-0.575 0.176,-0.548 0.176,-0.512L0.176,-0.512C0.176,-0.487 0.183,-0.468 0.197,-0.454C0.211,-0.44 0.228,-0.43 0.249,-0.423C0.269,-0.416 0.298,-0.41 0.335,-0.402L0.353,-0.399C0.396,-0.39 0.432,-0.38 0.461,-0.368C0.49,-0.356 0.514,-0.336 0.533,-0.309C0.552,-0.282 0.562,-0.246 0.562,-0.199L0.562,-0.198C0.562,-0.155 0.552,-0.118 0.531,-0.087C0.511,-0.056 0.481,-0.033 0.442,-0.017C0.403,-0.001 0.356,0.007 0.301,0.007Z" style="fill-rule:nonzero;"/>
            </g>
            <g transform="matrix(182.429,0,0,182.429,1370.52,391.478)">
                <path d="M0.384,-0.507L0.483,-0.507L0.483,0L0.384,0L0.384,-0.507ZM0.178,-0.199C0.178,-0.163 0.187,-0.136 0.205,-0.116C0.223,-0.097 0.248,-0.087 0.281,-0.087C0.314,-0.087 0.339,-0.096 0.357,-0.113C0.375,-0.131 0.384,-0.155 0.384,-0.187L0.391,-0.081C0.38,-0.056 0.363,-0.035 0.34,-0.018C0.316,-0.001 0.288,0.007 0.253,0.007C0.197,0.007 0.154,-0.011 0.124,-0.047C0.093,-0.083 0.078,-0.133 0.078,-0.199L0.078,-0.507L0.178,-0.507L0.178,-0.199Z" style="fill-rule:nonzero;"/>
            </g>
            <g transform="matrix(182.429,0,0,182.429,1471.98,391.478)">
                <path d="M0.078,-0.507L0.178,-0.507L0.178,0.206L0.078,0.206L0.078,-0.507ZM0.305,0.007C0.274,0.007 0.246,0 0.223,-0.015C0.199,-0.031 0.182,-0.052 0.171,-0.08L0.178,-0.186C0.178,-0.164 0.182,-0.145 0.189,-0.13C0.197,-0.115 0.209,-0.103 0.223,-0.095C0.238,-0.087 0.256,-0.083 0.277,-0.083C0.31,-0.083 0.336,-0.093 0.354,-0.113C0.372,-0.133 0.381,-0.161 0.381,-0.197L0.381,-0.307C0.381,-0.344 0.372,-0.373 0.354,-0.394C0.336,-0.414 0.31,-0.424 0.277,-0.424C0.256,-0.424 0.238,-0.42 0.223,-0.413C0.209,-0.405 0.197,-0.393 0.189,-0.378C0.182,-0.363 0.178,-0.345 0.178,-0.324L0.167,-0.421C0.183,-0.451 0.203,-0.474 0.228,-0.49C0.252,-0.506 0.28,-0.514 0.31,-0.514C0.346,-0.514 0.377,-0.506 0.402,-0.49C0.428,-0.474 0.447,-0.45 0.46,-0.419C0.474,-0.389 0.48,-0.351 0.48,-0.308L0.48,-0.197C0.48,-0.154 0.474,-0.118 0.46,-0.087C0.446,-0.056 0.426,-0.033 0.4,-0.017C0.374,-0.001 0.342,0.007 0.305,0.007Z" style="fill-rule:nonzero;"/>
            </g>
            <g transform="matrix(182.429,0,0,182.429,1571.21,391.478)">
                <path d="M0.078,-0.507L0.178,-0.507L0.178,0.206L0.078,0.206L0.078,-0.507ZM0.305,0.007C0.274,0.007 0.246,0 0.223,-0.015C0.199,-0.031 0.182,-0.052 0.171,-0.08L0.178,-0.186C0.178,-0.164 0.182,-0.145 0.189,-0.13C0.197,-0.115 0.209,-0.103 0.223,-0.095C0.238,-0.087 0.256,-0.083 0.277,-0.083C0.31,-0.083 0.336,-0.093 0.354,-0.113C0.372,-0.133 0.381,-0.161 0.381,-0.197L0.381,-0.307C0.381,-0.344 0.372,-0.373 0.354,-0.394C0.336,-0.414 0.31,-0.424 0.277,-0.424C0.256,-0.424 0.238,-0.42 0.223,-0.413C0.209,-0.405 0.197,-0.393 0.189,-0.378C0.182,-0.363 0.178,-0.345 0.178,-0.324L0.167,-0.421C0.183,-0.451 0.203,-0.474 0.228,-0.49C0.252,-0.506 0.28,-0.514 0.31,-0.514C0.346,-0.514 0.377,-0.506 0.402,-0.49C0.428,-0.474 0.447,-0.45 0.46,-0.419C0.474,-0.389 0.48,-0.351 0.48,-0.308L0.48,-0.197C0.48,-0.154 0.474,-0.118 0.46,-0.087C0.446,-0.056 0.426,-0.033 0.4,-0.017C0.374,-0.001 0.342,0.007 0.305,0.007Z" style="fill-rule:nonzero;"/>
            </g>
            <g transform="matrix(182.429,0,0,182.429,1670.44,391.478)">
                <path d="M0.178,-0.131C0.178,-0.118 0.18,-0.109 0.186,-0.102C0.191,-0.096 0.199,-0.092 0.208,-0.092L0.255,-0.092L0.255,0.002L0.197,0.002C0.159,0.002 0.13,-0.009 0.109,-0.033C0.088,-0.056 0.078,-0.089 0.078,-0.132L0.078,-0.71L0.178,-0.71L0.178,-0.131Z" style="fill-rule:nonzero;"/>
            </g>
            <g transform="matrix(182.429,0,0,182.429,1723.26,391.478)">
                <path d="M0.078,-0.71L0.178,-0.71L0.178,-0.61L0.078,-0.61L0.078,-0.71ZM0.078,-0.507L0.178,-0.507L0.178,0L0.078,0L0.078,-0.507Z" style="fill-rule:nonzero;"/>
            </g>
            <g transform="matrix(182.429,0,0,182.429,1769.05,391.478)">
                <path d="M0.286,0.007C0.239,0.007 0.199,-0.001 0.166,-0.019C0.132,-0.037 0.107,-0.062 0.09,-0.096C0.072,-0.13 0.063,-0.172 0.063,-0.22L0.063,-0.277C0.063,-0.327 0.072,-0.37 0.089,-0.405C0.105,-0.441 0.13,-0.468 0.162,-0.486C0.194,-0.505 0.232,-0.514 0.277,-0.514C0.319,-0.514 0.355,-0.504 0.385,-0.482C0.415,-0.461 0.438,-0.431 0.454,-0.391C0.47,-0.351 0.478,-0.303 0.478,-0.247L0.478,-0.213L0.136,-0.213L0.136,-0.293L0.383,-0.293C0.38,-0.335 0.369,-0.367 0.351,-0.39C0.332,-0.413 0.308,-0.424 0.277,-0.424C0.239,-0.424 0.21,-0.412 0.189,-0.387C0.169,-0.362 0.158,-0.327 0.158,-0.282L0.158,-0.218C0.158,-0.176 0.169,-0.144 0.191,-0.121C0.214,-0.099 0.245,-0.087 0.286,-0.087C0.306,-0.087 0.326,-0.091 0.346,-0.1C0.366,-0.108 0.383,-0.119 0.399,-0.134L0.464,-0.068C0.439,-0.044 0.411,-0.026 0.38,-0.012C0.349,0.001 0.317,0.007 0.286,0.007Z" style="fill-rule:nonzero;"/>
            </g>
            <g transform="matrix(182.429,0,0,182.429,1866.86,391.478)">
                <path d="M0.257,0.007C0.227,0.007 0.199,0.004 0.173,-0.001C0.147,-0.007 0.122,-0.016 0.1,-0.028C0.077,-0.04 0.056,-0.054 0.037,-0.072L0.096,-0.145C0.123,-0.124 0.15,-0.108 0.177,-0.098C0.204,-0.087 0.231,-0.082 0.257,-0.082C0.297,-0.082 0.326,-0.088 0.346,-0.1C0.366,-0.113 0.375,-0.131 0.375,-0.155C0.375,-0.172 0.37,-0.184 0.359,-0.192C0.349,-0.2 0.335,-0.205 0.319,-0.208C0.303,-0.211 0.281,-0.214 0.252,-0.216C0.249,-0.216 0.247,-0.216 0.244,-0.216L0.228,-0.217C0.195,-0.22 0.167,-0.225 0.144,-0.232C0.121,-0.239 0.102,-0.252 0.087,-0.271C0.072,-0.29 0.064,-0.318 0.064,-0.354C0.064,-0.389 0.072,-0.419 0.086,-0.443C0.101,-0.467 0.123,-0.484 0.152,-0.496C0.181,-0.508 0.217,-0.514 0.261,-0.514C0.287,-0.514 0.312,-0.512 0.336,-0.507C0.36,-0.502 0.383,-0.495 0.405,-0.485C0.427,-0.476 0.448,-0.463 0.468,-0.449L0.408,-0.376C0.382,-0.392 0.357,-0.404 0.333,-0.413C0.308,-0.421 0.284,-0.425 0.261,-0.425C0.227,-0.425 0.201,-0.419 0.185,-0.407C0.168,-0.396 0.159,-0.379 0.159,-0.355C0.159,-0.342 0.164,-0.332 0.174,-0.325C0.183,-0.318 0.195,-0.313 0.21,-0.311C0.225,-0.309 0.245,-0.307 0.272,-0.305L0.285,-0.304L0.288,-0.304C0.289,-0.304 0.29,-0.304 0.291,-0.304C0.326,-0.301 0.357,-0.297 0.382,-0.29C0.406,-0.282 0.427,-0.268 0.444,-0.247C0.461,-0.226 0.47,-0.195 0.47,-0.155C0.47,-0.119 0.462,-0.089 0.446,-0.065C0.431,-0.041 0.407,-0.023 0.376,-0.011C0.344,0.001 0.305,0.007 0.257,0.007Z" style="fill-rule:nonzero;"/>
            </g>
        </g>
        <g transform="matrix(0.889727,0,0,1,4.8959,332.101)">
            <path d="M273.406,698.429L273.406,708.686L44.398,708.686L44.398,698.429L273.406,698.429ZM535.822,698.429L760.152,698.429L760.152,708.686L535.822,708.686L535.822,698.429Z" style="fill:rgb(6,20,222);"/>
        </g>
    </g>
</svg>
