<?xml version="1.0" encoding="UTF-8" standalone="no"?>
<!DOCTYPE svg PUBLIC "-//W3C//DTD SVG 1.1//EN" "http://www.w3.org/Graphics/SVG/1.1/DTD/svg11.dtd">
<svg width="100%" height="100%" viewBox="0 0 33 33" version="1.1" xmlns="http://www.w3.org/2000/svg" xmlns:xlink="http://www.w3.org/1999/xlink" xml:space="preserve" xmlns:serif="http://www.serif.com/" style="fill-rule:evenodd;clip-rule:evenodd;stroke-linejoin:round;stroke-miterlimit:2;">
    <g transform="matrix(1,0,0,1,-1004.82,-388.685)">
        <g transform="matrix(0.44859,0,0,0.44859,565.298,227.025)">
            <circle cx="1016.11" cy="396.687" r="36.313" style="fill:rgb(248,248,248);"/>
        </g>
        <g transform="matrix(0.417935,0,0,0.417935,592.129,238.931)">
            <path d="M1015.16,370.109L1021.43,386.485L1011.6,386.283L1041.27,424.545L1031.13,397.195L1040.47,396.9L1027.93,370.046L1015.16,370.109Z" style="fill:rgb(229,198,27);"/>
        </g>
        <g transform="matrix(0.49539,0,0,0.498485,509.719,205.46)">
            <path d="M1032.31,369.051C1015.09,369.051 1001.11,383.028 1001.11,400.244C1001.11,417.46 1015.09,431.437 1032.31,431.437C1049.52,431.437 1063.5,417.46 1063.5,400.244C1063.5,383.028 1049.52,369.051 1032.31,369.051ZM1053.39,383.339L1015.4,421.325C1020.03,425.044 1025.91,427.27 1032.31,427.27C1047.22,427.27 1059.33,415.16 1059.33,400.244C1059.33,393.849 1057.11,387.97 1053.39,383.339ZM1050.54,380.299C1045.73,375.902 1039.33,373.218 1032.31,373.218C1017.39,373.218 1005.28,385.328 1005.28,400.244C1005.28,407.266 1007.96,413.667 1012.36,418.474L1050.54,380.299Z" style="fill:rgb(29,29,29);"/>
        </g>
    </g>
</svg>
