<?xml version="1.0" standalone="no"?>
<!DOCTYPE svg PUBLIC "-//W3C//DTD SVG 1.1//EN" "http://www.w3.org/Graphics/SVG/1.1/DTD/svg11.dtd">

<svg width="790.0000000000001" height="566.0" viewBox="0 0 790.0000000000001 566.0" version="1.1" xmlns="http://www.w3.org/2000/svg" xmlns:xlink="http://www.w3.org/1999/xlink">
<!-- automatically generated by aafigure --><text x="115.00000000000001" y="102.12" font-family="monospace" font-size="11.200000000000001" fill="#000000" >
  netlink events
</text>
<text x="115.00000000000001" y="113.32000000000001" font-family="monospace" font-size="11.200000000000001" fill="#000000" >
  inotify events
</text>
<text x="115.00000000000001" y="124.52000000000001" font-family="monospace" font-size="11.200000000000001" fill="#000000" >
  ...
</text>
<text x="383.8" y="225.32000000000005" font-family="monospace" font-size="11.200000000000001" fill="#000000" >
  NDB._event_queue
</text>
<text x="249.40000000000003" y="270.12000000000006" font-family="monospace" font-size="11.200000000000001" fill="#000000" >
  NDB.__dbm__()
</text>
<text x="215.8" y="326.12000000000006" font-family="monospace" font-size="11.200000000000001" fill="#000000" >
  NDB.schema.load_netlink()
</text>
<text x="215.8" y="337.32000000000005" font-family="monospace" font-size="11.200000000000001" fill="#000000" >
  NDB.objects.*.load*()
</text>
<text x="305.40000000000003" y="404.52000000000004" font-family="monospace" font-size="11.200000000000001" fill="#000000" >
  SQLite
</text>
<text x="305.40000000000003" y="415.72" font-family="monospace" font-size="11.200000000000001" fill="#000000" >
  PostgreSQL
</text>
<text x="507.00000000000006" y="494.12000000000006" font-family="monospace" font-size="11.200000000000001" fill="#000000" >
  RTNL_Object.apply()
</text>
<text x="283.0" y="516.5200000000001" font-family="monospace" font-size="11.200000000000001" fill="#000000" >
  interface
</text>
<text x="283.0" y="527.72" font-family="monospace" font-size="11.200000000000001" fill="#000000" >
  address
</text>
<text x="283.0" y="538.9200000000001" font-family="monospace" font-size="11.200000000000001" fill="#000000" >
  route
</text>
<text x="283.0" y="550.1200000000001" font-family="monospace" font-size="11.200000000000001" fill="#000000" >
  ...
</text>
<line x1="53.400000000000006" y1="8.600000000000001" x2="781.4000000000001" y2="8.600000000000001" stroke="#000000" stroke-width="2.0" />
<line x1="31.000000000000004" y1="19.8" x2="759.0000000000001" y2="19.8" stroke="#000000" stroke-width="2.0" />
<line x1="781.4000000000001" y1="8.600000000000001" x2="781.4000000000001" y2="53.400000000000006" stroke="#000000" stroke-width="2.0" />
<line x1="8.600000000000001" y1="31.000000000000004" x2="736.6" y2="31.000000000000004" stroke="#000000" stroke-width="2.0" />
<line x1="759.0000000000001" y1="19.8" x2="759.0000000000001" y2="64.60000000000001" stroke="#000000" stroke-width="2.0" />
<line x1="8.600000000000001" y1="31.000000000000004" x2="8.600000000000001" y2="75.80000000000001" stroke="#000000" stroke-width="2.0" />
<line x1="736.6" y1="31.000000000000004" x2="736.6" y2="75.80000000000001" stroke="#000000" stroke-width="2.0" />
<line x1="764.6" y1="53.400000000000006" x2="781.4000000000001" y2="53.400000000000006" stroke="#000000" stroke-width="2.0" />
<line x1="742.2" y1="64.60000000000001" x2="759.0000000000001" y2="64.60000000000001" stroke="#000000" stroke-width="2.0" />
<line x1="8.600000000000001" y1="75.80000000000001" x2="736.6" y2="75.80000000000001" stroke="#000000" stroke-width="2.0" />
<g>
    <line x1="98.2" y1="137.4" x2="95.4" y2="129.0" stroke="#000000" stroke-width="2.0" />
    <line x1="98.2" y1="137.4" x2="101.00000000000001" y2="129.0" stroke="#000000" stroke-width="2.0" />
    <line x1="98.2" y1="81.4" x2="98.2" y2="137.4" stroke="#000000" stroke-width="2.0" />
</g>
<g>
    <line x1="355.8" y1="137.4" x2="353.00000000000006" y2="129.0" stroke="#000000" stroke-width="2.0" />
    <line x1="355.8" y1="137.4" x2="358.6" y2="129.0" stroke="#000000" stroke-width="2.0" />
    <line x1="355.8" y1="81.4" x2="355.8" y2="137.4" stroke="#000000" stroke-width="2.0" />
</g>
<g>
    <line x1="624.6" y1="137.4" x2="621.8000000000001" y2="129.0" stroke="#000000" stroke-width="2.0" />
    <line x1="624.6" y1="137.4" x2="627.4000000000001" y2="129.0" stroke="#000000" stroke-width="2.0" />
    <line x1="624.6" y1="81.4" x2="624.6" y2="137.4" stroke="#000000" stroke-width="2.0" />
</g>
<g>
    <line x1="378.20000000000005" y1="81.4" x2="381.00000000000006" y2="89.80000000000001" stroke="#000000" stroke-width="2.0" />
    <line x1="378.20000000000005" y1="81.4" x2="375.40000000000003" y2="89.80000000000001" stroke="#000000" stroke-width="2.0" />
    <line x1="378.20000000000005" y1="81.4" x2="378.20000000000005" y2="137.4" stroke="#000000" stroke-width="2.0" />
</g>
<g>
    <line x1="647.0000000000001" y1="81.4" x2="649.8000000000001" y2="89.80000000000001" stroke="#000000" stroke-width="2.0" />
    <line x1="647.0000000000001" y1="81.4" x2="644.2" y2="89.80000000000001" stroke="#000000" stroke-width="2.0" />
    <line x1="647.0000000000001" y1="81.4" x2="647.0000000000001" y2="137.4" stroke="#000000" stroke-width="2.0" />
</g>
<line x1="19.8" y1="143.0" x2="187.8" y2="143.0" stroke="#000000" stroke-width="2.0" />
<line x1="288.6" y1="143.0" x2="456.6" y2="143.0" stroke="#000000" stroke-width="2.0" />
<line x1="557.4000000000001" y1="143.0" x2="725.4000000000001" y2="143.0" stroke="#000000" stroke-width="2.0" />
<line x1="19.8" y1="143.0" x2="19.8" y2="165.4" stroke="#000000" stroke-width="2.0" />
<line x1="187.8" y1="143.0" x2="187.8" y2="165.4" stroke="#000000" stroke-width="2.0" />
<line x1="288.6" y1="143.0" x2="288.6" y2="165.4" stroke="#000000" stroke-width="2.0" />
<line x1="456.6" y1="143.0" x2="456.6" y2="165.4" stroke="#000000" stroke-width="2.0" />
<line x1="557.4000000000001" y1="143.0" x2="557.4000000000001" y2="165.4" stroke="#000000" stroke-width="2.0" />
<line x1="725.4000000000001" y1="143.0" x2="725.4000000000001" y2="165.4" stroke="#000000" stroke-width="2.0" />
<g>
    <line x1="731.0000000000001" y1="154.20000000000002" x2="739.4000000000001" y2="151.4" stroke="#000000" stroke-width="2.0" />
    <line x1="731.0000000000001" y1="154.20000000000002" x2="739.4000000000001" y2="157.00000000000003" stroke="#000000" stroke-width="2.0" />
    <line x1="731.0000000000001" y1="154.20000000000002" x2="764.6" y2="154.20000000000002" stroke="#000000" stroke-width="2.0" />
</g>
<path d="M770.2,159.8 C770.2,157.16013468357022 767.2398653164298,154.20000000000002 764.6,154.20000000000002" fill="none" stroke="#000000" stroke-width="2.0" /><line x1="19.8" y1="165.4" x2="187.8" y2="165.4" stroke="#000000" stroke-width="2.0" />
<line x1="288.6" y1="165.4" x2="456.6" y2="165.4" stroke="#000000" stroke-width="2.0" />
<line x1="557.4000000000001" y1="165.4" x2="725.4000000000001" y2="165.4" stroke="#000000" stroke-width="2.0" />
<line x1="770.2" y1="159.8" x2="770.2" y2="495.80000000000007" stroke="#000000" stroke-width="2.0" />
<line x1="98.2" y1="171.00000000000003" x2="98.2" y2="193.4" stroke="#000000" stroke-width="2.0" />
<line x1="367.00000000000006" y1="171.00000000000003" x2="367.00000000000006" y2="199.00000000000003" stroke="#000000" stroke-width="2.0" />
<line x1="635.8000000000001" y1="171.00000000000003" x2="635.8000000000001" y2="193.4" stroke="#000000" stroke-width="2.0" />
<path d="M98.2,193.4 C98.2,196.0398653164298 101.16013468357022,199.00000000000003 103.80000000000001,199.00000000000003" fill="none" stroke="#000000" stroke-width="2.0" /><line x1="103.80000000000001" y1="199.00000000000003" x2="367.00000000000006" y2="199.00000000000003" stroke="#000000" stroke-width="2.0" />
<line x1="367.00000000000006" y1="199.00000000000003" x2="630.2" y2="199.00000000000003" stroke="#000000" stroke-width="2.0" />
<path d="M635.8000000000001,193.4 C635.8000000000001,196.0398653164298 632.8398653164298,199.00000000000003 630.2,199.00000000000003" fill="none" stroke="#000000" stroke-width="2.0" /><g>
    <line x1="367.00000000000006" y1="249.40000000000003" x2="364.20000000000005" y2="241.00000000000003" stroke="#000000" stroke-width="2.0" />
    <line x1="367.00000000000006" y1="249.40000000000003" x2="369.8" y2="241.00000000000003" stroke="#000000" stroke-width="2.0" />
    <line x1="367.00000000000006" y1="199.00000000000003" x2="367.00000000000006" y2="249.40000000000003" stroke="#000000" stroke-width="2.0" />
</g>
<line x1="232.60000000000002" y1="255.00000000000003" x2="512.6" y2="255.00000000000003" stroke="#000000" stroke-width="2.0" />
<line x1="232.60000000000002" y1="255.00000000000003" x2="232.60000000000002" y2="277.40000000000003" stroke="#000000" stroke-width="2.0" />
<line x1="512.6" y1="255.00000000000003" x2="512.6" y2="277.40000000000003" stroke="#000000" stroke-width="2.0" />
<line x1="232.60000000000002" y1="277.40000000000003" x2="512.6" y2="277.40000000000003" stroke="#000000" stroke-width="2.0" />
<g>
    <line x1="367.00000000000006" y1="305.40000000000003" x2="364.20000000000005" y2="297.0" stroke="#000000" stroke-width="2.0" />
    <line x1="367.00000000000006" y1="305.40000000000003" x2="369.8" y2="297.0" stroke="#000000" stroke-width="2.0" />
    <line x1="367.00000000000006" y1="283.0" x2="367.00000000000006" y2="305.40000000000003" stroke="#000000" stroke-width="2.0" />
</g>
<line x1="199.00000000000003" y1="311.00000000000006" x2="535.0" y2="311.00000000000006" stroke="#000000" stroke-width="2.0" />
<line x1="199.00000000000003" y1="311.00000000000006" x2="199.00000000000003" y2="344.6" stroke="#000000" stroke-width="2.0" />
<line x1="535.0" y1="311.00000000000006" x2="535.0" y2="344.6" stroke="#000000" stroke-width="2.0" />
<line x1="199.00000000000003" y1="344.6" x2="535.0" y2="344.6" stroke="#000000" stroke-width="2.0" />
<g>
    <line x1="367.00000000000006" y1="372.6" x2="364.20000000000005" y2="364.20000000000005" stroke="#000000" stroke-width="2.0" />
    <line x1="367.00000000000006" y1="372.6" x2="369.8" y2="364.20000000000005" stroke="#000000" stroke-width="2.0" />
    <line x1="367.00000000000006" y1="350.20000000000005" x2="367.00000000000006" y2="372.6" stroke="#000000" stroke-width="2.0" />
</g>
<line x1="243.8" y1="378.20000000000005" x2="501.40000000000003" y2="378.20000000000005" stroke="#000000" stroke-width="2.0" />
<line x1="243.8" y1="378.20000000000005" x2="243.8" y2="423.00000000000006" stroke="#000000" stroke-width="2.0" />
<line x1="501.40000000000003" y1="378.20000000000005" x2="501.40000000000003" y2="423.00000000000006" stroke="#000000" stroke-width="2.0" />
<line x1="243.8" y1="423.00000000000006" x2="501.40000000000003" y2="423.00000000000006" stroke="#000000" stroke-width="2.0" />
<g>
    <line x1="367.00000000000006" y1="462.20000000000005" x2="364.20000000000005" y2="453.80000000000007" stroke="#000000" stroke-width="2.0" />
    <line x1="367.00000000000006" y1="462.20000000000005" x2="369.8" y2="453.80000000000007" stroke="#000000" stroke-width="2.0" />
    <line x1="367.00000000000006" y1="428.6" x2="367.00000000000006" y2="462.20000000000005" stroke="#000000" stroke-width="2.0" />
</g>
<line x1="299.8" y1="467.80000000000007" x2="479.00000000000006" y2="467.80000000000007" stroke="#000000" stroke-width="2.0" />
<line x1="277.40000000000003" y1="479.00000000000006" x2="456.6" y2="479.00000000000006" stroke="#000000" stroke-width="2.0" />
<line x1="479.00000000000006" y1="467.80000000000007" x2="479.00000000000006" y2="535.0" stroke="#000000" stroke-width="2.0" />
<line x1="255.00000000000003" y1="490.20000000000005" x2="434.20000000000005" y2="490.20000000000005" stroke="#000000" stroke-width="2.0" />
<line x1="456.6" y1="479.00000000000006" x2="456.6" y2="546.2" stroke="#000000" stroke-width="2.0" />
<line x1="255.00000000000003" y1="490.20000000000005" x2="255.00000000000003" y2="557.4000000000001" stroke="#000000" stroke-width="2.0" />
<line x1="434.20000000000005" y1="490.20000000000005" x2="434.20000000000005" y2="557.4000000000001" stroke="#000000" stroke-width="2.0" />
<line x1="484.6" y1="501.40000000000003" x2="764.6" y2="501.40000000000003" stroke="#000000" stroke-width="2.0" />
<path d="M770.2,495.80000000000007 C770.2,498.4398653164298 767.2398653164298,501.40000000000003 764.6,501.40000000000003" fill="none" stroke="#000000" stroke-width="2.0" /><line x1="462.20000000000005" y1="535.0" x2="479.00000000000006" y2="535.0" stroke="#000000" stroke-width="2.0" />
<line x1="439.80000000000007" y1="546.2" x2="456.6" y2="546.2" stroke="#000000" stroke-width="2.0" />
<line x1="255.00000000000003" y1="557.4000000000001" x2="434.20000000000005" y2="557.4000000000001" stroke="#000000" stroke-width="2.0" />
<text x="350.20000000000005" y="57.32" font-family="monospace" font-size="11.200000000000001" fill="#000000" >
  kernel
</text>
<text x="81.4" y="158.12" font-family="monospace" font-size="11.200000000000001" fill="#000000" >
  source
</text>
<text x="350.20000000000005" y="158.12" font-family="monospace" font-size="11.200000000000001" fill="#000000" >
  source
</text>
<text x="619.0000000000001" y="158.12" font-family="monospace" font-size="11.200000000000001" fill="#000000" >
  source
</text>
<text x="115.00000000000001" y="225.32000000000005" font-family="monospace" font-size="11.200000000000001" fill="#000000" >
  parsed netlink events
</text>
<text x="428.6" y="270.12000000000006" font-family="monospace" font-size="11.200000000000001" fill="#000000" >
  thread
</text>
<text x="271.8" y="393.32000000000005" font-family="monospace" font-size="11.200000000000001" fill="#000000" >
  SQL database
</text>
<text x="271.8" y="505.32000000000005" font-family="monospace" font-size="11.200000000000001" fill="#000000" >
  NDB object:
</text>
</svg>
