<?xml version="1.0" standalone="no"?>
<!DOCTYPE svg PUBLIC "-//W3C//DTD SVG 1.1//EN" "http://www.w3.org/Graphics/SVG/1.1/DTD/svg11.dtd">

<svg width="846.0000000000001" height="666.8000000000001" viewBox="0 0 846.0000000000001 666.8000000000001" version="1.1" xmlns="http://www.w3.org/2000/svg" xmlns:xlink="http://www.w3.org/1999/xlink">
<!-- automatically generated by aafigure --><text x="47.800000000000004" y="46.120000000000005" font-family="monospace" font-size="11.200000000000001" fill="#000000" >
  NDB() instance
</text>
<text x="25.400000000000002" y="169.32000000000002" font-family="monospace" font-size="11.200000000000001" fill="#000000" >
  View()
</text>
<text x="327.8" y="247.72000000000003" font-family="monospace" font-size="11.200000000000001" fill="#000000" >
  .dump()
</text>
<text x="630.2" y="247.72000000000003" font-family="monospace" font-size="11.200000000000001" fill="#000000" >
  .create()
</text>
<text x="327.8" y="258.9200000000001" font-family="monospace" font-size="11.200000000000001" fill="#000000" >
  .summary()
</text>
<text x="630.2" y="258.9200000000001" font-family="monospace" font-size="11.200000000000001" fill="#000000" >
  .__getitem__()
</text>
<text x="316.6" y="370.9200000000001" font-family="monospace" font-size="11.200000000000001" fill="#000000" >
  RecordSet()
</text>
<text x="596.6" y="370.9200000000001" font-family="monospace" font-size="11.200000000000001" fill="#000000" >
  Interface()
</text>
<text x="596.6" y="382.12000000000006" font-family="monospace" font-size="11.200000000000001" fill="#000000" >
  Address()
</text>
<text x="596.6" y="393.32000000000005" font-family="monospace" font-size="11.200000000000001" fill="#000000" >
  Route()
</text>
<text x="596.6" y="404.52000000000004" font-family="monospace" font-size="11.200000000000001" fill="#000000" >
  Neighbour()
</text>
<text x="596.6" y="415.72" font-family="monospace" font-size="11.200000000000001" fill="#000000" >
  Rule()
</text>
<text x="294.20000000000005" y="482.9200000000001" font-family="monospace" font-size="11.200000000000001" fill="#000000" >
  filter()
</text>
<text x="294.20000000000005" y="494.12000000000006" font-family="monospace" font-size="11.200000000000001" fill="#000000" >
  select()
</text>
<text x="294.20000000000005" y="505.32000000000005" font-family="monospace" font-size="11.200000000000001" fill="#000000" >
  transform()
</text>
<text x="294.20000000000005" y="516.5200000000001" font-family="monospace" font-size="11.200000000000001" fill="#000000" >
  join()
</text>
<text x="294.20000000000005" y="628.5200000000001" font-family="monospace" font-size="11.200000000000001" fill="#000000" >
  Record()
</text>
<line x1="31.000000000000004" y1="8.600000000000001" x2="277.40000000000003" y2="8.600000000000001" stroke="#000000" stroke-width="2.0" />
<line x1="31.000000000000004" y1="8.600000000000001" x2="31.000000000000004" y2="75.80000000000001" stroke="#000000" stroke-width="2.0" />
<line x1="277.40000000000003" y1="8.600000000000001" x2="277.40000000000003" y2="75.80000000000001" stroke="#000000" stroke-width="2.0" />
<line x1="31.000000000000004" y1="75.80000000000001" x2="277.40000000000003" y2="75.80000000000001" stroke="#000000" stroke-width="2.0" />
<line x1="154.20000000000002" y1="81.4" x2="154.20000000000002" y2="103.80000000000001" stroke="#000000" stroke-width="2.0" />
<line x1="53.400000000000006" y1="109.4" x2="277.40000000000003" y2="109.4" stroke="#000000" stroke-width="2.0" />
<line x1="31.000000000000004" y1="120.60000000000001" x2="255.00000000000003" y2="120.60000000000001" stroke="#000000" stroke-width="2.0" />
<line x1="277.40000000000003" y1="109.4" x2="277.40000000000003" y2="176.60000000000002" stroke="#000000" stroke-width="2.0" />
<line x1="8.600000000000001" y1="131.8" x2="232.60000000000002" y2="131.8" stroke="#000000" stroke-width="2.0" />
<line x1="255.00000000000003" y1="120.60000000000001" x2="255.00000000000003" y2="187.8" stroke="#000000" stroke-width="2.0" />
<line x1="283.0" y1="131.8" x2="411.8" y2="131.8" stroke="#000000" stroke-width="2.0" />
<line x1="411.8" y1="131.8" x2="714.2" y2="131.8" stroke="#000000" stroke-width="2.0" />
<line x1="8.600000000000001" y1="131.8" x2="8.600000000000001" y2="199.00000000000003" stroke="#000000" stroke-width="2.0" />
<line x1="232.60000000000002" y1="131.8" x2="232.60000000000002" y2="199.00000000000003" stroke="#000000" stroke-width="2.0" />
<line x1="411.8" y1="131.8" x2="411.8" y2="204.60000000000002" stroke="#000000" stroke-width="2.0" />
<line x1="714.2" y1="131.8" x2="714.2" y2="204.60000000000002" stroke="#000000" stroke-width="2.0" />
<line x1="260.6" y1="176.60000000000002" x2="277.40000000000003" y2="176.60000000000002" stroke="#000000" stroke-width="2.0" />
<line x1="238.20000000000002" y1="187.8" x2="255.00000000000003" y2="187.8" stroke="#000000" stroke-width="2.0" />
<line x1="8.600000000000001" y1="199.00000000000003" x2="232.60000000000002" y2="199.00000000000003" stroke="#000000" stroke-width="2.0" />
<line x1="311.00000000000006" y1="210.20000000000002" x2="523.8000000000001" y2="210.20000000000002" stroke="#000000" stroke-width="2.0" />
<line x1="613.4000000000001" y1="210.20000000000002" x2="826.2" y2="210.20000000000002" stroke="#000000" stroke-width="2.0" />
<line x1="311.00000000000006" y1="210.20000000000002" x2="311.00000000000006" y2="288.6" stroke="#000000" stroke-width="2.0" />
<line x1="523.8000000000001" y1="210.20000000000002" x2="523.8000000000001" y2="288.6" stroke="#000000" stroke-width="2.0" />
<line x1="613.4000000000001" y1="210.20000000000002" x2="613.4000000000001" y2="288.6" stroke="#000000" stroke-width="2.0" />
<line x1="826.2" y1="210.20000000000002" x2="826.2" y2="288.6" stroke="#000000" stroke-width="2.0" />
<line x1="311.00000000000006" y1="288.6" x2="523.8000000000001" y2="288.6" stroke="#000000" stroke-width="2.0" />
<line x1="613.4000000000001" y1="288.6" x2="826.2" y2="288.6" stroke="#000000" stroke-width="2.0" />
<g>
    <line x1="411.8" y1="327.8" x2="409.00000000000006" y2="319.40000000000003" stroke="#000000" stroke-width="2.0" />
    <line x1="411.8" y1="327.8" x2="414.6" y2="319.40000000000003" stroke="#000000" stroke-width="2.0" />
    <line x1="411.8" y1="294.20000000000005" x2="411.8" y2="327.8" stroke="#000000" stroke-width="2.0" />
</g>
<g>
    <line x1="725.4000000000001" y1="327.8" x2="722.6" y2="319.40000000000003" stroke="#000000" stroke-width="2.0" />
    <line x1="725.4000000000001" y1="327.8" x2="728.2" y2="319.40000000000003" stroke="#000000" stroke-width="2.0" />
    <line x1="725.4000000000001" y1="294.20000000000005" x2="725.4000000000001" y2="327.8" stroke="#000000" stroke-width="2.0" />
</g>
<line x1="299.8" y1="333.40000000000003" x2="523.8000000000001" y2="333.40000000000003" stroke="#000000" stroke-width="2.0" />
<line x1="624.6" y1="333.40000000000003" x2="837.4000000000001" y2="333.40000000000003" stroke="#000000" stroke-width="2.0" />
<line x1="299.8" y1="333.40000000000003" x2="299.8" y2="400.6" stroke="#000000" stroke-width="2.0" />
<line x1="523.8000000000001" y1="333.40000000000003" x2="523.8000000000001" y2="400.6" stroke="#000000" stroke-width="2.0" />
<line x1="602.2" y1="344.6" x2="815.0000000000001" y2="344.6" stroke="#000000" stroke-width="2.0" />
<line x1="837.4000000000001" y1="333.40000000000003" x2="837.4000000000001" y2="411.8" stroke="#000000" stroke-width="2.0" />
<line x1="579.8000000000001" y1="355.8" x2="792.6" y2="355.8" stroke="#000000" stroke-width="2.0" />
<line x1="815.0000000000001" y1="344.6" x2="815.0000000000001" y2="423.00000000000006" stroke="#000000" stroke-width="2.0" />
<line x1="579.8000000000001" y1="355.8" x2="579.8000000000001" y2="434.20000000000005" stroke="#000000" stroke-width="2.0" />
<line x1="792.6" y1="355.8" x2="792.6" y2="434.20000000000005" stroke="#000000" stroke-width="2.0" />
<line x1="299.8" y1="400.6" x2="523.8000000000001" y2="400.6" stroke="#000000" stroke-width="2.0" />
<g>
    <line x1="411.8" y1="439.80000000000007" x2="409.00000000000006" y2="431.40000000000003" stroke="#000000" stroke-width="2.0" />
    <line x1="411.8" y1="439.80000000000007" x2="414.6" y2="431.40000000000003" stroke="#000000" stroke-width="2.0" />
    <line x1="411.8" y1="406.20000000000005" x2="411.8" y2="439.80000000000007" stroke="#000000" stroke-width="2.0" />
</g>
<line x1="820.6" y1="411.8" x2="837.4000000000001" y2="411.8" stroke="#000000" stroke-width="2.0" />
<line x1="798.2" y1="423.00000000000006" x2="815.0000000000001" y2="423.00000000000006" stroke="#000000" stroke-width="2.0" />
<line x1="579.8000000000001" y1="434.20000000000005" x2="792.6" y2="434.20000000000005" stroke="#000000" stroke-width="2.0" />
<line x1="322.20000000000005" y1="445.40000000000003" x2="546.2" y2="445.40000000000003" stroke="#000000" stroke-width="2.0" />
<line x1="299.8" y1="456.6" x2="523.8000000000001" y2="456.6" stroke="#000000" stroke-width="2.0" />
<line x1="546.2" y1="445.40000000000003" x2="546.2" y2="512.6" stroke="#000000" stroke-width="2.0" />
<line x1="277.40000000000003" y1="467.80000000000007" x2="501.40000000000003" y2="467.80000000000007" stroke="#000000" stroke-width="2.0" />
<line x1="523.8000000000001" y1="456.6" x2="523.8000000000001" y2="523.8000000000001" stroke="#000000" stroke-width="2.0" />
<line x1="277.40000000000003" y1="467.80000000000007" x2="277.40000000000003" y2="535.0" stroke="#000000" stroke-width="2.0" />
<line x1="501.40000000000003" y1="467.80000000000007" x2="501.40000000000003" y2="535.0" stroke="#000000" stroke-width="2.0" />
<line x1="529.4000000000001" y1="512.6" x2="546.2" y2="512.6" stroke="#000000" stroke-width="2.0" />
<line x1="507.00000000000006" y1="523.8000000000001" x2="523.8000000000001" y2="523.8000000000001" stroke="#000000" stroke-width="2.0" />
<line x1="277.40000000000003" y1="535.0" x2="501.40000000000003" y2="535.0" stroke="#000000" stroke-width="2.0" />
<g>
    <line x1="411.8" y1="563.0" x2="409.00000000000006" y2="554.6" stroke="#000000" stroke-width="2.0" />
    <line x1="411.8" y1="563.0" x2="414.6" y2="554.6" stroke="#000000" stroke-width="2.0" />
    <line x1="411.8" y1="540.6" x2="411.8" y2="563.0" stroke="#000000" stroke-width="2.0" />
</g>
<line x1="322.20000000000005" y1="568.6" x2="546.2" y2="568.6" stroke="#000000" stroke-width="2.0" />
<line x1="299.8" y1="579.8000000000001" x2="523.8000000000001" y2="579.8000000000001" stroke="#000000" stroke-width="2.0" />
<line x1="546.2" y1="568.6" x2="546.2" y2="635.8000000000001" stroke="#000000" stroke-width="2.0" />
<line x1="277.40000000000003" y1="591.0" x2="501.40000000000003" y2="591.0" stroke="#000000" stroke-width="2.0" />
<line x1="523.8000000000001" y1="579.8000000000001" x2="523.8000000000001" y2="647.0000000000001" stroke="#000000" stroke-width="2.0" />
<line x1="277.40000000000003" y1="591.0" x2="277.40000000000003" y2="658.2" stroke="#000000" stroke-width="2.0" />
<line x1="501.40000000000003" y1="591.0" x2="501.40000000000003" y2="658.2" stroke="#000000" stroke-width="2.0" />
<line x1="529.4000000000001" y1="635.8000000000001" x2="546.2" y2="635.8000000000001" stroke="#000000" stroke-width="2.0" />
<line x1="507.00000000000006" y1="647.0000000000001" x2="523.8000000000001" y2="647.0000000000001" stroke="#000000" stroke-width="2.0" />
<line x1="277.40000000000003" y1="658.2" x2="501.40000000000003" y2="658.2" stroke="#000000" stroke-width="2.0" />
<text x="607.8000000000001" y="426.9200000000001" font-family="monospace" font-size="11.200000000000001" fill="#000000" >
  ...
</text>
<text x="305.40000000000003" y="527.72" font-family="monospace" font-size="11.200000000000001" fill="#000000" >
  ...
</text>
</svg>
